<?xml version="1.0" encoding="UTF-8"?>
<svg xmlns="http://www.w3.org/2000/svg" version="1.1" width="150" height="150" viewBox="0 0 150 150"><rect x="0" y="0" width="150" height="150" fill="#ffffff"/><g transform="scale(5.172)"><g transform="translate(0,0)"><path fill-rule="evenodd" d="M9 0L9 1L10 1L10 2L8 2L8 3L9 3L9 4L10 4L10 5L9 5L9 6L8 6L8 8L4 8L4 9L7 9L7 10L5 10L5 11L4 11L4 10L3 10L3 12L2 12L2 11L1 11L1 10L0 10L0 13L1 13L1 14L2 14L2 16L1 16L1 15L0 15L0 17L2 17L2 16L3 16L3 19L1 19L1 18L0 18L0 19L1 19L1 20L0 20L0 21L1 21L1 20L3 20L3 21L4 21L4 20L3 20L3 19L4 19L4 18L5 18L5 19L7 19L7 18L9 18L9 19L8 19L8 20L10 20L10 21L11 21L11 23L12 23L12 24L11 24L11 25L10 25L10 26L12 26L12 24L14 24L14 26L13 26L13 27L14 27L14 26L15 26L15 22L14 22L14 21L13 21L13 20L12 20L12 19L11 19L11 18L12 18L12 16L14 16L14 17L15 17L15 16L17 16L17 17L16 17L16 18L21 18L21 17L22 17L22 20L20 20L20 19L16 19L16 20L15 20L15 21L17 21L17 24L16 24L16 26L17 26L17 25L18 25L18 23L19 23L19 22L18 22L18 20L20 20L20 26L19 26L19 28L20 28L20 29L21 29L21 27L22 27L22 26L21 26L21 25L23 25L23 27L24 27L24 28L22 28L22 29L24 29L24 28L25 28L25 23L26 23L26 22L27 22L27 24L28 24L28 23L29 23L29 21L26 21L26 22L25 22L25 20L26 20L26 18L27 18L27 20L28 20L28 19L29 19L29 16L28 16L28 15L29 15L29 12L28 12L28 11L29 11L29 9L28 9L28 10L26 10L26 9L27 9L27 8L26 8L26 9L25 9L25 10L24 10L24 12L25 12L25 14L23 14L23 12L22 12L22 11L20 11L20 12L19 12L19 11L18 11L18 10L17 10L17 9L19 9L19 6L20 6L20 7L21 7L21 5L20 5L20 4L19 4L19 3L20 3L20 2L21 2L21 1L20 1L20 0L18 0L18 1L16 1L16 0L14 0L14 1L13 1L13 0L12 0L12 1L10 1L10 0ZM14 1L14 2L13 2L13 3L12 3L12 2L11 2L11 3L12 3L12 4L11 4L11 5L10 5L10 6L9 6L9 7L10 7L10 6L11 6L11 8L12 8L12 10L10 10L10 8L9 8L9 9L8 9L8 10L10 10L10 11L8 11L8 13L6 13L6 12L7 12L7 11L6 11L6 12L5 12L5 13L6 13L6 14L8 14L8 13L10 13L10 14L9 14L9 15L10 15L10 16L12 16L12 15L10 15L10 14L11 14L11 13L12 13L12 12L13 12L13 10L14 10L14 11L16 11L16 12L15 12L15 14L13 14L13 15L18 15L18 17L21 17L21 16L22 16L22 15L23 15L23 14L22 14L22 15L20 15L20 14L19 14L19 15L18 15L18 14L16 14L16 13L17 13L17 11L16 11L16 9L13 9L13 8L12 8L12 6L13 6L13 7L14 7L14 8L15 8L15 7L16 7L16 6L17 6L17 7L18 7L18 6L17 6L17 5L18 5L18 2L16 2L16 3L15 3L15 1ZM14 3L14 5L13 5L13 6L14 6L14 7L15 7L15 6L16 6L16 4L15 4L15 3ZM0 8L0 9L3 9L3 8ZM20 8L20 10L23 10L23 8ZM25 10L25 11L26 11L26 13L27 13L27 14L25 14L25 15L24 15L24 16L23 16L23 18L24 18L24 20L25 20L25 18L26 18L26 17L27 17L27 18L28 18L28 17L27 17L27 14L28 14L28 13L27 13L27 11L26 11L26 10ZM11 11L11 12L12 12L12 11ZM1 12L1 13L2 13L2 12ZM18 12L18 13L19 13L19 12ZM20 12L20 13L21 13L21 12ZM3 13L3 15L4 15L4 17L5 17L5 18L7 18L7 17L8 17L8 16L7 16L7 15L5 15L5 14L4 14L4 13ZM25 15L25 16L26 16L26 15ZM5 16L5 17L7 17L7 16ZM10 17L10 18L11 18L11 17ZM13 18L13 19L14 19L14 18ZM10 19L10 20L11 20L11 21L12 21L12 20L11 20L11 19ZM5 20L5 21L7 21L7 20ZM8 21L8 25L9 25L9 24L10 24L10 22L9 22L9 21ZM21 21L21 24L24 24L24 21ZM13 22L13 23L14 23L14 22ZM22 22L22 23L23 23L23 22ZM26 25L26 27L27 27L27 29L29 29L29 28L28 28L28 27L29 27L29 25ZM8 26L8 29L10 29L10 28L12 28L12 29L13 29L13 28L12 28L12 27L9 27L9 26ZM20 26L20 27L21 27L21 26ZM27 26L27 27L28 27L28 26ZM15 27L15 29L18 29L18 27L17 27L17 28L16 28L16 27ZM0 0L0 7L7 7L7 0ZM1 1L1 6L6 6L6 1ZM2 2L2 5L5 5L5 2ZM22 0L22 7L29 7L29 0ZM23 1L23 6L28 6L28 1ZM24 2L24 5L27 5L27 2ZM0 22L0 29L7 29L7 22ZM1 23L1 28L6 28L6 23ZM2 24L2 27L5 27L5 24Z" fill="#000000"/></g></g></svg>
