<?xml version="1.0" encoding="UTF-8"?>
<svg xmlns="http://www.w3.org/2000/svg" version="1.1" width="150" height="150" viewBox="0 0 150 150"><rect x="0" y="0" width="150" height="150" fill="#ffffff"/><g transform="scale(2.83)"><g transform="translate(10,10)"><path fill-rule="evenodd" d="M10 0L10 2L11 2L11 0ZM12 0L12 1L13 1L13 2L12 2L12 4L13 4L13 3L14 3L14 4L15 4L15 5L18 5L18 7L19 7L19 8L20 8L20 7L21 7L21 8L22 8L22 9L23 9L23 10L21 10L21 9L18 9L18 8L17 8L17 6L16 6L16 9L12 9L12 7L13 7L13 5L11 5L11 6L10 6L10 4L11 4L11 3L8 3L8 4L9 4L9 5L8 5L8 7L9 7L9 8L6 8L6 9L5 9L5 8L0 8L0 9L1 9L1 10L0 10L0 13L1 13L1 12L2 12L2 11L1 11L1 10L3 10L3 9L4 9L4 11L5 11L5 13L8 13L8 12L9 12L9 14L5 14L5 16L6 16L6 17L7 17L7 18L5 18L5 17L4 17L4 16L3 16L3 18L4 18L4 19L2 19L2 17L1 17L1 16L2 16L2 15L3 15L3 14L4 14L4 13L3 13L3 14L2 14L2 15L1 15L1 14L0 14L0 15L1 15L1 16L0 16L0 17L1 17L1 18L0 18L0 19L1 19L1 21L0 21L0 25L1 25L1 21L2 21L2 22L3 22L3 23L2 23L2 24L3 24L3 23L5 23L5 22L6 22L6 23L7 23L7 24L6 24L6 25L8 25L8 27L11 27L11 25L12 25L12 26L13 26L13 27L12 27L12 29L13 29L13 28L14 28L14 29L16 29L16 30L15 30L15 31L14 31L14 32L15 32L15 33L16 33L16 32L17 32L17 33L18 33L18 32L19 32L19 33L20 33L20 32L19 32L19 30L20 30L20 31L21 31L21 32L22 32L22 33L28 33L28 32L27 32L27 31L26 31L26 29L27 29L27 30L29 30L29 32L31 32L31 33L32 33L32 32L31 32L31 31L30 31L30 30L33 30L33 29L32 29L32 28L33 28L33 27L32 27L32 26L33 26L33 24L32 24L32 26L31 26L31 27L30 27L30 25L29 25L29 24L31 24L31 23L32 23L32 22L33 22L33 21L32 21L32 20L31 20L31 19L32 19L32 18L33 18L33 17L32 17L32 16L31 16L31 15L32 15L32 14L33 14L33 13L31 13L31 15L30 15L30 13L29 13L29 12L28 12L28 11L29 11L29 10L28 10L28 11L27 11L27 12L28 12L28 13L29 13L29 14L28 14L28 16L27 16L27 13L26 13L26 14L25 14L25 12L24 12L24 11L23 11L23 10L24 10L24 9L25 9L25 11L26 11L26 10L27 10L27 9L28 9L28 8L27 8L27 9L26 9L26 8L24 8L24 9L23 9L23 8L22 8L22 7L23 7L23 5L24 5L24 7L25 7L25 5L24 5L24 4L25 4L25 3L24 3L24 2L23 2L23 1L24 1L24 0L19 0L19 1L16 1L16 0ZM8 1L8 2L9 2L9 1ZM19 1L19 2L16 2L16 4L17 4L17 3L18 3L18 4L19 4L19 2L20 2L20 1ZM21 1L21 2L22 2L22 1ZM14 2L14 3L15 3L15 2ZM20 3L20 5L19 5L19 7L20 7L20 6L21 6L21 7L22 7L22 5L23 5L23 4L22 4L22 3ZM9 6L9 7L10 7L10 6ZM11 6L11 7L12 7L12 6ZM14 6L14 8L15 8L15 6ZM10 8L10 9L9 9L9 12L11 12L11 13L10 13L10 14L13 14L13 15L12 15L12 17L10 17L10 20L11 20L11 22L13 22L13 23L12 23L12 25L15 25L15 26L16 26L16 27L14 27L14 28L16 28L16 29L17 29L17 30L16 30L16 31L17 31L17 32L18 32L18 30L19 30L19 27L22 27L22 26L24 26L24 25L23 25L23 23L24 23L24 24L26 24L26 23L27 23L27 24L28 24L28 23L30 23L30 22L31 22L31 20L29 20L29 21L27 21L27 18L28 18L28 19L29 19L29 17L30 17L30 19L31 19L31 16L30 16L30 15L29 15L29 17L27 17L27 16L26 16L26 18L25 18L25 17L24 17L24 16L25 16L25 14L23 14L23 13L22 13L22 12L23 12L23 11L22 11L22 12L20 12L20 10L18 10L18 11L16 11L16 13L17 13L17 14L15 14L15 13L14 13L14 12L15 12L15 11L14 11L14 12L13 12L13 13L12 13L12 11L13 11L13 10L12 10L12 9L11 9L11 8ZM29 8L29 9L30 9L30 8ZM31 8L31 10L33 10L33 9L32 9L32 8ZM6 9L6 10L5 10L5 11L6 11L6 12L8 12L8 10L7 10L7 9ZM10 9L10 11L11 11L11 9ZM16 9L16 10L17 10L17 9ZM6 10L6 11L7 11L7 10ZM18 11L18 12L17 12L17 13L18 13L18 14L17 14L17 15L16 15L16 16L17 16L17 18L16 18L16 17L12 17L12 18L13 18L13 19L12 19L12 21L13 21L13 20L14 20L14 21L15 21L15 20L16 20L16 21L18 21L18 22L20 22L20 23L19 23L19 24L17 24L17 22L15 22L15 23L14 23L14 24L15 24L15 23L16 23L16 24L17 24L17 27L16 27L16 28L17 28L17 29L18 29L18 28L17 28L17 27L18 27L18 26L21 26L21 25L20 25L20 23L21 23L21 24L22 24L22 23L23 23L23 22L24 22L24 21L25 21L25 22L26 22L26 19L25 19L25 18L24 18L24 17L23 17L23 14L22 14L22 15L21 15L21 13L18 13L18 12L19 12L19 11ZM30 11L30 12L31 12L31 11ZM18 14L18 15L17 15L17 16L18 16L18 17L20 17L20 16L19 16L19 15L20 15L20 14ZM6 15L6 16L7 16L7 17L9 17L9 15ZM14 15L14 16L15 16L15 15ZM21 16L21 17L22 17L22 19L23 19L23 21L22 21L22 20L20 20L20 22L21 22L21 21L22 21L22 22L23 22L23 21L24 21L24 20L25 20L25 19L24 19L24 18L23 18L23 17L22 17L22 16ZM7 18L7 19L6 19L6 20L5 20L5 19L4 19L4 20L2 20L2 21L4 21L4 22L5 22L5 21L6 21L6 22L8 22L8 21L9 21L9 23L8 23L8 24L9 24L9 23L10 23L10 21L9 21L9 19L8 19L8 18ZM17 18L17 19L16 19L16 20L18 20L18 21L19 21L19 20L18 20L18 19L20 19L20 18ZM7 19L7 20L6 20L6 21L8 21L8 19ZM14 19L14 20L15 20L15 19ZM29 21L29 22L30 22L30 21ZM27 22L27 23L28 23L28 22ZM4 24L4 25L5 25L5 24ZM25 25L25 28L28 28L28 25ZM26 26L26 27L27 27L27 26ZM8 28L8 33L9 33L9 32L11 32L11 33L12 33L12 31L13 31L13 30L10 30L10 31L9 31L9 29L11 29L11 28ZM20 28L20 29L21 29L21 30L23 30L23 31L22 31L22 32L25 32L25 31L24 31L24 30L25 30L25 29L24 29L24 28L23 28L23 29L22 29L22 28ZM29 28L29 30L30 30L30 29L31 29L31 28ZM23 29L23 30L24 30L24 29ZM0 0L0 7L7 7L7 0ZM1 1L1 6L6 6L6 1ZM2 2L2 5L5 5L5 2ZM26 0L26 7L33 7L33 0ZM27 1L27 6L32 6L32 1ZM28 2L28 5L31 5L31 2ZM0 26L0 33L7 33L7 26ZM1 27L1 32L6 32L6 27ZM2 28L2 31L5 31L5 28Z" fill="#000000"/></g></g></svg>
