<?xml version="1.0" encoding="UTF-8"?>
<svg xmlns="http://www.w3.org/2000/svg" version="1.1" width="150" height="150" viewBox="0 0 150 150"><rect x="0" y="0" width="150" height="150" fill="#ffffff"/><g transform="scale(3.061)"><g transform="translate(10,10)"><path fill-rule="evenodd" d="M8 0L8 4L10 4L10 3L11 3L11 4L12 4L12 2L11 2L11 0ZM12 0L12 1L13 1L13 2L14 2L14 3L13 3L13 5L11 5L11 6L10 6L10 7L9 7L9 5L8 5L8 7L9 7L9 8L10 8L10 7L11 7L11 6L12 6L12 8L11 8L11 9L9 9L9 10L11 10L11 11L10 11L10 13L9 13L9 11L8 11L8 10L6 10L6 11L8 11L8 13L7 13L7 12L6 12L6 13L5 13L5 12L4 12L4 11L5 11L5 10L3 10L3 9L2 9L2 8L0 8L0 9L2 9L2 10L1 10L1 12L0 12L0 14L1 14L1 13L2 13L2 11L3 11L3 13L4 13L4 14L2 14L2 16L0 16L0 18L1 18L1 17L2 17L2 18L3 18L3 19L2 19L2 20L0 20L0 21L2 21L2 20L3 20L3 21L4 21L4 20L5 20L5 21L7 21L7 20L6 20L6 19L7 19L7 18L6 18L6 19L5 19L5 17L3 17L3 15L4 15L4 14L6 14L6 15L8 15L8 16L9 16L9 17L8 17L8 18L9 18L9 19L11 19L11 20L10 20L10 21L9 21L9 20L8 20L8 22L10 22L10 24L11 24L11 25L9 25L9 23L8 23L8 25L9 25L9 27L8 27L8 29L11 29L11 28L12 28L12 29L14 29L14 27L15 27L15 29L16 29L16 28L17 28L17 29L18 29L18 27L20 27L20 28L19 28L19 29L21 29L21 26L22 26L22 25L26 25L26 23L27 23L27 24L28 24L28 26L27 26L27 29L28 29L28 28L29 28L29 17L28 17L28 16L29 16L29 13L28 13L28 12L29 12L29 8L25 8L25 9L24 9L24 8L23 8L23 9L22 9L22 10L20 10L20 11L19 11L19 9L21 9L21 8L20 8L20 7L21 7L21 6L20 6L20 5L19 5L19 4L20 4L20 3L21 3L21 2L20 2L20 1L19 1L19 0L18 0L18 1L19 1L19 3L18 3L18 2L17 2L17 0ZM15 1L15 4L16 4L16 3L17 3L17 5L14 5L14 6L13 6L13 8L12 8L12 9L11 9L11 10L12 10L12 9L13 9L13 10L14 10L14 8L15 8L15 7L16 7L16 9L17 9L17 7L18 7L18 6L19 6L19 7L20 7L20 6L19 6L19 5L18 5L18 3L17 3L17 2L16 2L16 1ZM9 2L9 3L10 3L10 2ZM14 6L14 7L15 7L15 6ZM16 6L16 7L17 7L17 6ZM4 8L4 9L7 9L7 8ZM17 10L17 11L18 11L18 10ZM22 10L22 11L23 11L23 12L22 12L22 13L21 13L21 12L18 12L18 13L17 13L17 14L16 14L16 16L15 16L15 17L16 17L16 16L17 16L17 14L18 14L18 17L17 17L17 18L16 18L16 19L14 19L14 21L15 21L15 20L16 20L16 23L15 23L15 22L13 22L13 21L12 21L12 20L13 20L13 19L12 19L12 20L11 20L11 21L10 21L10 22L11 22L11 24L12 24L12 25L11 25L11 26L10 26L10 28L11 28L11 26L12 26L12 25L13 25L13 26L15 26L15 25L17 25L17 24L16 24L16 23L18 23L18 25L19 25L19 26L21 26L21 25L19 25L19 23L20 23L20 21L19 21L19 20L23 20L23 19L24 19L24 20L26 20L26 21L25 21L25 22L27 22L27 23L28 23L28 20L27 20L27 19L28 19L28 18L27 18L27 15L28 15L28 14L27 14L27 11L28 11L28 10L24 10L24 11L23 11L23 10ZM12 11L12 12L11 12L11 13L10 13L10 15L9 15L9 14L8 14L8 15L9 15L9 16L10 16L10 17L9 17L9 18L12 18L12 17L13 17L13 18L14 18L14 17L13 17L13 16L14 16L14 15L13 15L13 13L14 13L14 14L15 14L15 13L16 13L16 12L15 12L15 13L14 13L14 11ZM24 11L24 12L25 12L25 11ZM12 12L12 13L13 13L13 12ZM6 13L6 14L7 14L7 13ZM19 13L19 14L20 14L20 13ZM22 13L22 14L26 14L26 15L27 15L27 14L26 14L26 13ZM10 15L10 16L11 16L11 17L12 17L12 16L13 16L13 15L12 15L12 16L11 16L11 15ZM19 15L19 18L17 18L17 21L18 21L18 22L19 22L19 21L18 21L18 20L19 20L19 18L20 18L20 19L23 19L23 18L24 18L24 19L27 19L27 18L25 18L25 17L26 17L26 16L25 16L25 17L22 17L22 16L21 16L21 18L20 18L20 15ZM23 15L23 16L24 16L24 15ZM6 16L6 17L7 17L7 16ZM3 19L3 20L4 20L4 19ZM21 21L21 24L24 24L24 21ZM22 22L22 23L23 23L23 22ZM12 23L12 24L13 24L13 25L15 25L15 23L14 23L14 24L13 24L13 23ZM16 26L16 27L17 27L17 26ZM12 27L12 28L13 28L13 27ZM22 27L22 28L23 28L23 29L24 29L24 28L25 28L25 29L26 29L26 27L24 27L24 28L23 28L23 27ZM0 0L0 7L7 7L7 0ZM1 1L1 6L6 6L6 1ZM2 2L2 5L5 5L5 2ZM22 0L22 7L29 7L29 0ZM23 1L23 6L28 6L28 1ZM24 2L24 5L27 5L27 2ZM0 22L0 29L7 29L7 22ZM1 23L1 28L6 28L6 23ZM2 24L2 27L5 27L5 24Z" fill="#000000"/></g></g></svg>
