<?xml version="1.0" encoding="UTF-8"?>
<svg xmlns="http://www.w3.org/2000/svg" version="1.1" width="150" height="150" viewBox="0 0 150 150"><rect x="0" y="0" width="150" height="150" fill="#ffffff"/><g transform="scale(4.545)"><g transform="translate(0,0)"><path fill-rule="evenodd" d="M10 0L10 2L11 2L11 0ZM12 0L12 1L13 1L13 2L12 2L12 4L13 4L13 3L14 3L14 4L15 4L15 5L18 5L18 7L19 7L19 8L20 8L20 7L21 7L21 8L22 8L22 9L23 9L23 10L21 10L21 9L18 9L18 8L17 8L17 6L16 6L16 8L17 8L17 11L18 11L18 12L14 12L14 11L16 11L16 9L12 9L12 7L13 7L13 5L11 5L11 6L10 6L10 4L11 4L11 3L8 3L8 4L9 4L9 5L8 5L8 7L9 7L9 8L6 8L6 9L8 9L8 10L9 10L9 9L10 9L10 11L11 11L11 9L12 9L12 10L13 10L13 11L12 11L12 13L13 13L13 12L14 12L14 13L18 13L18 14L15 14L15 15L14 15L14 16L15 16L15 15L16 15L16 16L17 16L17 18L15 18L15 17L12 17L12 15L13 15L13 14L11 14L11 16L9 16L9 15L10 15L10 14L9 14L9 13L11 13L11 12L9 12L9 11L7 11L7 10L5 10L5 8L0 8L0 10L1 10L1 11L3 11L3 12L2 12L2 13L1 13L1 12L0 12L0 16L1 16L1 18L0 18L0 20L1 20L1 21L0 21L0 25L1 25L1 22L2 22L2 23L3 23L3 21L4 21L4 23L5 23L5 24L6 24L6 25L7 25L7 24L6 24L6 23L9 23L9 22L10 22L10 25L9 25L9 24L8 24L8 27L10 27L10 28L8 28L8 33L9 33L9 30L10 30L10 28L11 28L11 25L12 25L12 26L13 26L13 27L12 27L12 29L13 29L13 28L14 28L14 29L16 29L16 30L15 30L15 31L14 31L14 32L17 32L17 33L18 33L18 32L17 32L17 30L18 30L18 31L19 31L19 30L20 30L20 31L21 31L21 32L22 32L22 33L28 33L28 32L27 32L27 31L26 31L26 29L27 29L27 30L29 30L29 32L31 32L31 33L32 33L32 32L31 32L31 31L30 31L30 30L33 30L33 28L32 28L32 26L33 26L33 24L32 24L32 26L31 26L31 27L30 27L30 25L29 25L29 24L31 24L31 23L32 23L32 22L33 22L33 21L32 21L32 20L31 20L31 19L32 19L32 18L33 18L33 17L32 17L32 16L31 16L31 15L32 15L32 14L33 14L33 13L31 13L31 15L30 15L30 13L29 13L29 12L28 12L28 11L29 11L29 10L28 10L28 11L27 11L27 12L28 12L28 13L29 13L29 14L28 14L28 16L27 16L27 13L26 13L26 14L25 14L25 12L24 12L24 11L23 11L23 10L24 10L24 9L25 9L25 11L26 11L26 10L27 10L27 9L28 9L28 8L27 8L27 9L26 9L26 8L24 8L24 9L23 9L23 8L22 8L22 7L23 7L23 5L24 5L24 7L25 7L25 5L24 5L24 4L25 4L25 3L24 3L24 2L23 2L23 1L24 1L24 0L19 0L19 1L16 1L16 0ZM8 1L8 2L9 2L9 1ZM19 1L19 2L16 2L16 4L17 4L17 3L18 3L18 4L19 4L19 2L20 2L20 1ZM21 1L21 2L22 2L22 1ZM14 2L14 3L15 3L15 2ZM20 3L20 5L19 5L19 7L20 7L20 6L21 6L21 7L22 7L22 5L23 5L23 4L22 4L22 3ZM9 6L9 7L10 7L10 6ZM11 6L11 7L12 7L12 6ZM14 6L14 8L15 8L15 6ZM10 8L10 9L11 9L11 8ZM29 8L29 9L30 9L30 8ZM31 8L31 10L33 10L33 9L32 9L32 8ZM2 9L2 10L4 10L4 11L5 11L5 12L4 12L4 14L5 14L5 15L4 15L4 16L3 16L3 15L1 15L1 16L2 16L2 17L5 17L5 15L6 15L6 16L7 16L7 15L6 15L6 14L7 14L7 13L6 13L6 14L5 14L5 12L7 12L7 11L5 11L5 10L4 10L4 9ZM18 10L18 11L19 11L19 12L18 12L18 13L21 13L21 15L22 15L22 14L23 14L23 17L22 17L22 16L21 16L21 17L22 17L22 19L23 19L23 21L22 21L22 20L20 20L20 22L18 22L18 21L19 21L19 20L18 20L18 19L20 19L20 18L17 18L17 20L16 20L16 21L14 21L14 20L15 20L15 19L14 19L14 20L13 20L13 21L12 21L12 19L13 19L13 18L12 18L12 17L9 17L9 16L8 16L8 17L6 17L6 18L7 18L7 19L5 19L5 18L3 18L3 19L2 19L2 21L3 21L3 19L5 19L5 21L6 21L6 22L9 22L9 21L10 21L10 20L9 20L9 19L10 19L10 18L11 18L11 22L13 22L13 23L12 23L12 25L15 25L15 26L16 26L16 25L17 25L17 24L19 24L19 23L20 23L20 25L21 25L21 26L18 26L18 27L16 27L16 29L17 29L17 28L18 28L18 29L19 29L19 27L22 27L22 26L24 26L24 25L23 25L23 23L24 23L24 24L26 24L26 23L27 23L27 24L28 24L28 23L30 23L30 22L31 22L31 20L29 20L29 21L27 21L27 18L28 18L28 19L29 19L29 17L30 17L30 19L31 19L31 16L30 16L30 15L29 15L29 17L27 17L27 16L26 16L26 18L25 18L25 17L24 17L24 16L25 16L25 14L23 14L23 13L22 13L22 12L23 12L23 11L22 11L22 12L20 12L20 10ZM30 11L30 12L31 12L31 11ZM8 12L8 13L9 13L9 12ZM2 13L2 14L3 14L3 13ZM18 14L18 15L17 15L17 16L18 16L18 17L20 17L20 16L19 16L19 15L20 15L20 14ZM8 17L8 18L9 18L9 17ZM23 17L23 18L24 18L24 19L25 19L25 20L24 20L24 21L23 21L23 22L22 22L22 21L21 21L21 22L20 22L20 23L21 23L21 24L22 24L22 23L23 23L23 22L24 22L24 21L25 21L25 22L26 22L26 19L25 19L25 18L24 18L24 17ZM6 20L6 21L8 21L8 20ZM17 20L17 21L16 21L16 22L15 22L15 23L14 23L14 24L15 24L15 25L16 25L16 24L17 24L17 21L18 21L18 20ZM29 21L29 22L30 22L30 21ZM27 22L27 23L28 23L28 22ZM15 23L15 24L16 24L16 23ZM2 24L2 25L3 25L3 24ZM25 25L25 28L28 28L28 25ZM26 26L26 27L27 27L27 26ZM14 27L14 28L15 28L15 27ZM20 28L20 29L21 29L21 30L23 30L23 31L22 31L22 32L25 32L25 31L24 31L24 30L25 30L25 29L24 29L24 28L23 28L23 29L22 29L22 28ZM29 28L29 30L30 30L30 29L32 29L32 28ZM23 29L23 30L24 30L24 29ZM11 30L11 31L10 31L10 33L12 33L12 31L13 31L13 30ZM19 32L19 33L20 33L20 32ZM0 0L0 7L7 7L7 0ZM1 1L1 6L6 6L6 1ZM2 2L2 5L5 5L5 2ZM26 0L26 7L33 7L33 0ZM27 1L27 6L32 6L32 1ZM28 2L28 5L31 5L31 2ZM0 26L0 33L7 33L7 26ZM1 27L1 32L6 32L6 27ZM2 28L2 31L5 31L5 28Z" fill="#000000"/></g></g></svg>
