<?xml version="1.0" encoding="UTF-8"?>
<svg xmlns="http://www.w3.org/2000/svg" version="1.1" width="150" height="150" viewBox="0 0 150 150"><rect x="0" y="0" width="150" height="150" fill="#ffffff"/><g transform="scale(5.172)"><g transform="translate(0,0)"><path fill-rule="evenodd" d="M9 0L9 1L8 1L8 2L9 2L9 3L8 3L8 4L10 4L10 7L11 7L11 4L12 4L12 5L13 5L13 4L15 4L15 2L16 2L16 3L17 3L17 4L16 4L16 5L14 5L14 7L15 7L15 8L17 8L17 9L16 9L16 10L14 10L14 8L13 8L13 6L12 6L12 9L13 9L13 10L11 10L11 11L10 11L10 9L11 9L11 8L6 8L6 9L9 9L9 10L6 10L6 11L7 11L7 12L6 12L6 13L7 13L7 14L5 14L5 15L4 15L4 16L6 16L6 17L7 17L7 16L8 16L8 18L9 18L9 20L10 20L10 18L9 18L9 17L10 17L10 16L11 16L11 15L10 15L10 14L11 14L11 13L12 13L12 14L13 14L13 13L14 13L14 14L15 14L15 15L14 15L14 16L13 16L13 15L12 15L12 17L14 17L14 19L16 19L16 20L17 20L17 21L18 21L18 22L14 22L14 21L12 21L12 19L13 19L13 18L11 18L11 21L10 21L10 22L9 22L9 21L8 21L8 23L9 23L9 24L8 24L8 29L12 29L12 27L13 27L13 26L11 26L11 21L12 21L12 22L13 22L13 23L12 23L12 25L13 25L13 24L14 24L14 25L16 25L16 26L15 26L15 27L14 27L14 28L16 28L16 27L17 27L17 26L19 26L19 27L18 27L18 28L17 28L17 29L18 29L18 28L19 28L19 27L20 27L20 28L21 28L21 29L22 29L22 28L21 28L21 25L25 25L25 26L22 26L22 27L23 27L23 29L24 29L24 27L25 27L25 28L26 28L26 29L27 29L27 28L28 28L28 26L29 26L29 24L26 24L26 23L27 23L27 22L29 22L29 20L28 20L28 19L27 19L27 16L28 16L28 15L27 15L27 12L28 12L28 11L27 11L27 12L25 12L25 13L21 13L21 12L22 12L22 11L23 11L23 12L24 12L24 11L25 11L25 9L26 9L26 8L25 8L25 9L24 9L24 8L23 8L23 9L22 9L22 8L21 8L21 9L19 9L19 8L20 8L20 7L21 7L21 4L20 4L20 3L21 3L21 0L18 0L18 1L20 1L20 2L18 2L18 3L17 3L17 0L16 0L16 1L15 1L15 2L14 2L14 3L13 3L13 4L12 4L12 2L13 2L13 1L11 1L11 2L10 2L10 0ZM10 3L10 4L11 4L11 3ZM18 3L18 4L17 4L17 5L16 5L16 6L15 6L15 7L16 7L16 6L17 6L17 8L19 8L19 7L20 7L20 5L18 5L18 4L19 4L19 3ZM8 5L8 7L9 7L9 5ZM18 6L18 7L19 7L19 6ZM0 8L0 9L3 9L3 10L4 10L4 11L2 11L2 10L1 10L1 11L2 11L2 12L0 12L0 15L1 15L1 16L0 16L0 21L1 21L1 18L2 18L2 17L3 17L3 16L2 16L2 15L1 15L1 14L2 14L2 12L4 12L4 13L3 13L3 14L4 14L4 13L5 13L5 8ZM27 8L27 9L28 9L28 10L29 10L29 9L28 9L28 8ZM16 10L16 12L18 12L18 13L17 13L17 16L18 16L18 17L17 17L17 20L18 20L18 21L20 21L20 20L22 20L22 19L23 19L23 20L24 20L24 19L25 19L25 21L26 21L26 20L27 20L27 19L25 19L25 18L24 18L24 19L23 19L23 18L22 18L22 17L26 17L26 16L27 16L27 15L26 15L26 13L25 13L25 16L24 16L24 15L23 15L23 16L22 16L22 14L20 14L20 13L19 13L19 11L20 11L20 10L18 10L18 11L17 11L17 10ZM23 10L23 11L24 11L24 10ZM8 11L8 12L7 12L7 13L8 13L8 16L9 16L9 11ZM12 11L12 13L13 13L13 12L14 12L14 13L15 13L15 14L16 14L16 13L15 13L15 12L14 12L14 11ZM10 12L10 13L11 13L11 12ZM28 13L28 14L29 14L29 13ZM18 14L18 16L20 16L20 19L22 19L22 18L21 18L21 16L20 16L20 15L19 15L19 14ZM6 15L6 16L7 16L7 15ZM1 16L1 17L2 17L2 16ZM14 16L14 17L15 17L15 18L16 18L16 17L15 17L15 16ZM28 17L28 18L29 18L29 17ZM3 18L3 19L2 19L2 21L7 21L7 20L8 20L8 19L7 19L7 18L5 18L5 19L4 19L4 18ZM3 19L3 20L4 20L4 19ZM5 19L5 20L7 20L7 19ZM21 21L21 24L24 24L24 21ZM19 22L19 23L20 23L20 22ZM22 22L22 23L23 23L23 22ZM14 23L14 24L16 24L16 25L17 25L17 24L18 24L18 25L20 25L20 24L18 24L18 23ZM9 24L9 25L10 25L10 24ZM25 24L25 25L26 25L26 24ZM9 26L9 28L10 28L10 26ZM25 26L25 27L26 27L26 28L27 28L27 26ZM0 0L0 7L7 7L7 0ZM1 1L1 6L6 6L6 1ZM2 2L2 5L5 5L5 2ZM22 0L22 7L29 7L29 0ZM23 1L23 6L28 6L28 1ZM24 2L24 5L27 5L27 2ZM0 22L0 29L7 29L7 22ZM1 23L1 28L6 28L6 23ZM2 24L2 27L5 27L5 24Z" fill="#000000"/></g></g></svg>
