<?xml version="1.0" encoding="UTF-8"?>
<svg xmlns="http://www.w3.org/2000/svg" version="1.1" width="150" height="150" viewBox="0 0 150 150"><rect x="0" y="0" width="150" height="150" fill="#ffffff"/><g transform="scale(2.83)"><g transform="translate(10,10)"><path fill-rule="evenodd" d="M9 0L9 1L8 1L8 2L9 2L9 3L8 3L8 4L10 4L10 7L11 7L11 4L12 4L12 5L13 5L13 4L14 4L14 5L15 5L15 6L14 6L14 7L15 7L15 8L13 8L13 6L12 6L12 9L15 9L15 8L17 8L17 9L16 9L16 10L14 10L14 11L16 11L16 12L13 12L13 13L12 13L12 11L13 11L13 10L11 10L11 11L10 11L10 9L11 9L11 8L6 8L6 9L5 9L5 8L0 8L0 9L5 9L5 10L3 10L3 11L5 11L5 12L6 12L6 13L8 13L8 14L9 14L9 15L10 15L10 17L9 17L9 16L8 16L8 15L7 15L7 14L5 14L5 13L2 13L2 11L0 11L0 12L1 12L1 13L0 13L0 17L2 17L2 18L0 18L0 19L3 19L3 20L5 20L5 21L7 21L7 22L5 22L5 23L4 23L4 22L3 22L3 21L2 21L2 22L3 22L3 23L2 23L2 24L3 24L3 23L4 23L4 24L5 24L5 25L7 25L7 24L8 24L8 23L9 23L9 22L10 22L10 23L11 23L11 21L12 21L12 22L13 22L13 21L14 21L14 22L15 22L15 23L14 23L14 24L13 24L13 23L12 23L12 25L14 25L14 26L15 26L15 27L14 27L14 28L15 28L15 27L16 27L16 28L17 28L17 29L18 29L18 30L21 30L21 29L20 29L20 28L24 28L24 29L25 29L25 30L24 30L24 31L23 31L23 30L22 30L22 31L20 31L20 32L22 32L22 33L28 33L28 32L29 32L29 33L30 33L30 32L31 32L31 33L32 33L32 32L31 32L31 31L32 31L32 30L31 30L31 31L30 31L30 29L29 29L29 28L31 28L31 27L32 27L32 28L33 28L33 27L32 27L32 26L33 26L33 24L32 24L32 26L31 26L31 25L30 25L30 26L29 26L29 24L31 24L31 23L32 23L32 22L33 22L33 21L32 21L32 20L31 20L31 19L32 19L32 18L33 18L33 17L32 17L32 16L31 16L31 15L32 15L32 14L33 14L33 13L31 13L31 15L30 15L30 16L31 16L31 19L30 19L30 17L29 17L29 16L28 16L28 15L26 15L26 16L24 16L24 17L23 17L23 16L22 16L22 15L23 15L23 14L24 14L24 15L25 15L25 14L28 14L28 13L30 13L30 12L31 12L31 11L32 11L32 10L33 10L33 9L32 9L32 8L31 8L31 9L30 9L30 8L29 8L29 9L30 9L30 10L29 10L29 11L30 11L30 12L28 12L28 11L27 11L27 10L28 10L28 8L27 8L27 9L26 9L26 8L25 8L25 5L24 5L24 4L23 4L23 3L25 3L25 2L23 2L23 1L24 1L24 0L23 0L23 1L22 1L22 0L21 0L21 1L22 1L22 2L20 2L20 3L22 3L22 4L23 4L23 5L22 5L22 7L21 7L21 4L18 4L18 3L17 3L17 2L18 2L18 1L20 1L20 0L17 0L17 1L14 1L14 0L13 0L13 1L11 1L11 2L10 2L10 0ZM12 2L12 4L13 4L13 3L14 3L14 2ZM10 3L10 4L11 4L11 3ZM16 3L16 4L15 4L15 5L16 5L16 6L15 6L15 7L16 7L16 6L17 6L17 8L18 8L18 9L22 9L22 8L21 8L21 7L20 7L20 5L16 5L16 4L17 4L17 3ZM8 5L8 7L9 7L9 5ZM23 5L23 8L24 8L24 5ZM18 6L18 8L19 8L19 6ZM6 9L6 10L5 10L5 11L6 11L6 12L9 12L9 10L8 10L8 11L6 11L6 10L7 10L7 9ZM24 9L24 10L23 10L23 11L22 11L22 10L21 10L21 11L22 11L22 12L20 12L20 13L21 13L21 14L18 14L18 15L17 15L17 14L16 14L16 13L17 13L17 12L18 12L18 13L19 13L19 11L20 11L20 10L19 10L19 11L18 11L18 10L17 10L17 12L16 12L16 13L13 13L13 14L12 14L12 13L11 13L11 12L10 12L10 13L11 13L11 17L10 17L10 20L11 20L11 18L13 18L13 17L12 17L12 15L13 15L13 16L14 16L14 18L16 18L16 17L17 17L17 16L18 16L18 17L19 17L19 16L20 16L20 17L22 17L22 18L19 18L19 19L16 19L16 20L14 20L14 19L12 19L12 21L13 21L13 20L14 20L14 21L15 21L15 22L16 22L16 21L17 21L17 20L19 20L19 19L25 19L25 18L26 18L26 21L27 21L27 22L25 22L25 20L23 20L23 21L22 21L22 20L20 20L20 21L21 21L21 23L22 23L22 22L23 22L23 25L22 25L22 24L21 24L21 26L23 26L23 25L24 25L24 24L28 24L28 22L29 22L29 21L30 21L30 23L31 23L31 20L30 20L30 19L29 19L29 21L27 21L27 20L28 20L28 19L27 19L27 18L29 18L29 17L27 17L27 16L26 16L26 17L24 17L24 18L23 18L23 17L22 17L22 16L20 16L20 15L22 15L22 14L23 14L23 13L24 13L24 14L25 14L25 13L24 13L24 12L25 12L25 11L26 11L26 13L28 13L28 12L27 12L27 11L26 11L26 10L25 10L25 9ZM30 10L30 11L31 11L31 10ZM23 11L23 12L24 12L24 11ZM1 14L1 16L2 16L2 17L3 17L3 15L4 15L4 16L5 16L5 17L4 17L4 19L5 19L5 20L7 20L7 19L8 19L8 20L9 20L9 18L8 18L8 16L7 16L7 15L6 15L6 16L5 16L5 15L4 15L4 14ZM13 14L13 15L16 15L16 16L17 16L17 15L16 15L16 14ZM18 15L18 16L19 16L19 15ZM6 16L6 17L7 17L7 16ZM26 17L26 18L27 18L27 17ZM6 18L6 19L7 19L7 18ZM0 21L0 25L1 25L1 21ZM8 21L8 22L9 22L9 21ZM23 21L23 22L24 22L24 23L25 23L25 22L24 22L24 21ZM18 22L18 23L15 23L15 24L14 24L14 25L15 25L15 26L16 26L16 25L15 25L15 24L18 24L18 25L17 25L17 26L18 26L18 27L17 27L17 28L18 28L18 29L19 29L19 27L20 27L20 26L19 26L19 25L20 25L20 24L19 24L19 23L20 23L20 22ZM6 23L6 24L7 24L7 23ZM8 25L8 27L10 27L10 25ZM25 25L25 28L28 28L28 25ZM11 26L11 29L12 29L12 30L13 30L13 31L12 31L12 33L13 33L13 32L14 32L14 33L16 33L16 32L14 32L14 31L16 31L16 30L14 30L14 29L12 29L12 27L13 27L13 26ZM26 26L26 27L27 27L27 26ZM30 26L30 27L31 27L31 26ZM8 28L8 33L10 33L10 32L9 32L9 31L11 31L11 30L10 30L10 28ZM26 29L26 30L25 30L25 31L24 31L24 32L25 32L25 31L26 31L26 30L27 30L27 31L29 31L29 30L27 30L27 29ZM17 32L17 33L18 33L18 32ZM0 0L0 7L7 7L7 0ZM1 1L1 6L6 6L6 1ZM2 2L2 5L5 5L5 2ZM26 0L26 7L33 7L33 0ZM27 1L27 6L32 6L32 1ZM28 2L28 5L31 5L31 2ZM0 26L0 33L7 33L7 26ZM1 27L1 32L6 32L6 27ZM2 28L2 31L5 31L5 28Z" fill="#000000"/></g></g></svg>
