<?xml version="1.0" encoding="UTF-8"?>
<svg xmlns="http://www.w3.org/2000/svg" version="1.1" width="150" height="150" viewBox="0 0 150 150"><rect x="0" y="0" width="150" height="150" fill="#ffffff"/><g transform="scale(4.545)"><g transform="translate(0,0)"><path fill-rule="evenodd" d="M9 0L9 1L8 1L8 2L9 2L9 3L8 3L8 4L10 4L10 7L11 7L11 4L12 4L12 5L13 5L13 6L12 6L12 9L13 9L13 8L14 8L14 9L17 9L17 10L15 10L15 11L14 11L14 12L15 12L15 13L12 13L12 11L13 11L13 10L11 10L11 11L10 11L10 9L11 9L11 8L6 8L6 9L7 9L7 10L5 10L5 8L0 8L0 9L1 9L1 10L2 10L2 9L3 9L3 10L4 10L4 11L1 11L1 12L0 12L0 14L1 14L1 15L0 15L0 17L1 17L1 15L2 15L2 17L4 17L4 16L5 16L5 17L7 17L7 18L6 18L6 19L5 19L5 21L7 21L7 22L5 22L5 23L8 23L8 27L9 27L9 28L8 28L8 33L9 33L9 32L10 32L10 31L11 31L11 29L12 29L12 30L13 30L13 31L12 31L12 33L13 33L13 32L14 32L14 33L15 33L15 32L17 32L17 33L18 33L18 32L17 32L17 30L18 30L18 31L19 31L19 30L20 30L20 31L21 31L21 32L22 32L22 33L28 33L28 32L27 32L27 31L26 31L26 29L27 29L27 30L29 30L29 32L31 32L31 33L32 33L32 32L31 32L31 31L30 31L30 30L33 30L33 27L32 27L32 26L33 26L33 24L32 24L32 26L31 26L31 27L30 27L30 25L29 25L29 24L31 24L31 23L32 23L32 22L33 22L33 21L32 21L32 20L31 20L31 19L32 19L32 18L33 18L33 17L32 17L32 16L31 16L31 15L32 15L32 14L33 14L33 13L31 13L31 15L30 15L30 13L29 13L29 12L28 12L28 11L29 11L29 10L28 10L28 11L27 11L27 12L28 12L28 13L29 13L29 14L28 14L28 16L27 16L27 13L26 13L26 14L25 14L25 12L24 12L24 11L23 11L23 10L24 10L24 9L25 9L25 11L26 11L26 10L27 10L27 9L28 9L28 8L27 8L27 9L26 9L26 8L24 8L24 9L23 9L23 8L22 8L22 7L23 7L23 5L24 5L24 7L25 7L25 5L24 5L24 4L25 4L25 3L24 3L24 2L23 2L23 1L24 1L24 0L19 0L19 1L17 1L17 0L15 0L15 1L17 1L17 2L16 2L16 3L17 3L17 5L18 5L18 7L19 7L19 8L20 8L20 7L21 7L21 8L22 8L22 9L23 9L23 10L21 10L21 9L18 9L18 8L14 8L14 7L15 7L15 6L16 6L16 7L17 7L17 6L16 6L16 4L12 4L12 2L13 2L13 1L11 1L11 2L10 2L10 0ZM19 1L19 2L17 2L17 3L18 3L18 4L19 4L19 2L20 2L20 1ZM21 1L21 2L22 2L22 1ZM14 2L14 3L15 3L15 2ZM10 3L10 4L11 4L11 3ZM20 3L20 5L19 5L19 7L20 7L20 6L21 6L21 7L22 7L22 5L23 5L23 4L22 4L22 3ZM8 5L8 7L9 7L9 5ZM13 6L13 7L14 7L14 6ZM29 8L29 9L30 9L30 8ZM31 8L31 10L33 10L33 9L32 9L32 8ZM8 9L8 10L7 10L7 11L6 11L6 12L5 12L5 11L4 11L4 12L2 12L2 13L1 13L1 14L2 14L2 15L3 15L3 16L4 16L4 15L5 15L5 16L7 16L7 17L9 17L9 18L7 18L7 19L6 19L6 20L9 20L9 21L11 21L11 23L9 23L9 25L10 25L10 26L9 26L9 27L10 27L10 28L9 28L9 30L10 30L10 28L11 28L11 26L13 26L13 27L12 27L12 29L15 29L15 30L16 30L16 29L17 29L17 28L18 28L18 29L19 29L19 27L22 27L22 26L24 26L24 25L23 25L23 23L24 23L24 24L26 24L26 23L27 23L27 24L28 24L28 23L30 23L30 22L31 22L31 20L29 20L29 21L27 21L27 18L28 18L28 19L29 19L29 17L30 17L30 19L31 19L31 16L30 16L30 15L29 15L29 17L27 17L27 16L26 16L26 18L25 18L25 17L24 17L24 16L25 16L25 14L23 14L23 13L22 13L22 12L23 12L23 11L22 11L22 12L20 12L20 10L18 10L18 11L16 11L16 12L18 12L18 13L15 13L15 14L18 14L18 15L17 15L17 16L16 16L16 15L14 15L14 16L13 16L13 17L12 17L12 15L13 15L13 14L12 14L12 13L11 13L11 12L10 12L10 13L9 13L9 11L8 11L8 10L9 10L9 9ZM7 11L7 12L6 12L6 13L7 13L7 12L8 12L8 11ZM18 11L18 12L19 12L19 11ZM30 11L30 12L31 12L31 11ZM2 13L2 14L3 14L3 15L4 15L4 13ZM8 13L8 15L9 15L9 17L10 17L10 18L9 18L9 19L10 19L10 20L11 20L11 21L12 21L12 22L13 22L13 23L12 23L12 25L13 25L13 24L14 24L14 25L16 25L16 26L15 26L15 27L14 27L14 28L15 28L15 29L16 29L16 27L18 27L18 26L21 26L21 25L20 25L20 23L21 23L21 24L22 24L22 23L23 23L23 22L24 22L24 21L25 21L25 22L26 22L26 19L25 19L25 18L24 18L24 17L23 17L23 14L22 14L22 15L21 15L21 13L18 13L18 14L20 14L20 15L19 15L19 16L20 16L20 17L18 17L18 16L17 16L17 18L15 18L15 19L14 19L14 20L15 20L15 21L12 21L12 19L13 19L13 18L11 18L11 15L10 15L10 14L11 14L11 13L10 13L10 14L9 14L9 13ZM6 14L6 15L7 15L7 14ZM14 16L14 17L15 17L15 16ZM21 16L21 17L22 17L22 19L23 19L23 21L22 21L22 20L20 20L20 22L18 22L18 21L19 21L19 20L18 20L18 19L20 19L20 18L17 18L17 20L16 20L16 21L15 21L15 22L16 22L16 21L17 21L17 24L16 24L16 23L14 23L14 24L16 24L16 25L17 25L17 24L19 24L19 23L20 23L20 22L21 22L21 21L22 21L22 22L23 22L23 21L24 21L24 20L25 20L25 19L24 19L24 18L23 18L23 17L22 17L22 16ZM0 18L0 25L1 25L1 22L2 22L2 21L3 21L3 20L2 20L2 19L3 19L3 18L2 18L2 19L1 19L1 18ZM17 20L17 21L18 21L18 20ZM29 21L29 22L30 22L30 21ZM3 22L3 23L2 23L2 25L4 25L4 22ZM27 22L27 23L28 23L28 22ZM6 24L6 25L7 25L7 24ZM10 24L10 25L11 25L11 24ZM25 25L25 28L28 28L28 25ZM26 26L26 27L27 27L27 26ZM31 27L31 28L29 28L29 30L30 30L30 29L32 29L32 27ZM20 28L20 29L21 29L21 30L23 30L23 31L22 31L22 32L25 32L25 31L24 31L24 30L25 30L25 29L24 29L24 28L23 28L23 29L22 29L22 28ZM23 29L23 30L24 30L24 29ZM14 31L14 32L15 32L15 31ZM19 32L19 33L20 33L20 32ZM0 0L0 7L7 7L7 0ZM1 1L1 6L6 6L6 1ZM2 2L2 5L5 5L5 2ZM26 0L26 7L33 7L33 0ZM27 1L27 6L32 6L32 1ZM28 2L28 5L31 5L31 2ZM0 26L0 33L7 33L7 26ZM1 27L1 32L6 32L6 27ZM2 28L2 31L5 31L5 28Z" fill="#000000"/></g></g></svg>
