<?xml version="1.0" encoding="UTF-8"?>
<svg xmlns="http://www.w3.org/2000/svg" version="1.1" width="150" height="150" viewBox="0 0 150 150"><rect x="0" y="0" width="150" height="150" fill="#ffffff"/><g transform="scale(5.172)"><g transform="translate(0,0)"><path fill-rule="evenodd" d="M10 0L10 1L8 1L8 3L9 3L9 4L8 4L8 8L6 8L6 9L4 9L4 8L3 8L3 9L2 9L2 8L0 8L0 11L1 11L1 12L0 12L0 13L2 13L2 14L0 14L0 16L1 16L1 15L2 15L2 16L3 16L3 18L2 18L2 19L3 19L3 20L2 20L2 21L3 21L3 20L4 20L4 21L7 21L7 20L8 20L8 18L9 18L9 19L10 19L10 20L9 20L9 21L8 21L8 23L9 23L9 24L10 24L10 22L9 22L9 21L11 21L11 22L12 22L12 21L13 21L13 23L12 23L12 24L13 24L13 25L14 25L14 23L15 23L15 24L16 24L16 23L15 23L15 22L14 22L14 21L15 21L15 20L16 20L16 19L14 19L14 18L15 18L15 17L14 17L14 18L13 18L13 16L14 16L14 15L15 15L15 14L14 14L14 12L15 12L15 13L19 13L19 14L20 14L20 15L19 15L19 17L21 17L21 18L20 18L20 21L19 21L19 22L20 22L20 25L19 25L19 27L18 27L18 26L17 26L17 27L16 27L16 28L14 28L14 27L15 27L15 26L14 26L14 27L12 27L12 26L11 26L11 27L12 27L12 28L10 28L10 29L13 29L13 28L14 28L14 29L16 29L16 28L17 28L17 29L19 29L19 28L20 28L20 29L23 29L23 28L22 28L22 27L21 27L21 25L22 25L22 26L23 26L23 25L24 25L24 27L27 27L27 29L28 29L28 27L29 27L29 26L28 26L28 24L27 24L27 23L28 23L28 22L29 22L29 21L27 21L27 20L29 20L29 17L28 17L28 15L29 15L29 14L25 14L25 16L26 16L26 15L27 15L27 17L28 17L28 18L27 18L27 20L26 20L26 22L27 22L27 23L25 23L25 20L24 20L24 19L23 19L23 20L22 20L22 18L24 18L24 17L21 17L21 15L23 15L23 16L24 16L24 15L23 15L23 14L22 14L22 13L23 13L23 12L25 12L25 13L26 13L26 12L27 12L27 13L29 13L29 12L28 12L28 10L29 10L29 9L28 9L28 8L26 8L26 9L25 9L25 8L22 8L22 9L21 9L21 8L20 8L20 7L21 7L21 5L19 5L19 4L20 4L20 3L21 3L21 1L20 1L20 0L18 0L18 1L17 1L17 0L13 0L13 2L14 2L14 4L13 4L13 3L12 3L12 7L11 7L11 4L10 4L10 3L9 3L9 2L11 2L11 0ZM16 1L16 2L17 2L17 1ZM19 1L19 2L18 2L18 3L16 3L16 4L17 4L17 5L18 5L18 6L17 6L17 7L18 7L18 8L17 8L17 9L18 9L18 10L16 10L16 9L15 9L15 11L17 11L17 12L19 12L19 13L21 13L21 11L20 11L20 12L19 12L19 10L20 10L20 8L19 8L19 7L20 7L20 6L19 6L19 5L18 5L18 3L20 3L20 1ZM14 4L14 6L13 6L13 7L12 7L12 8L14 8L14 6L15 6L15 7L16 7L16 6L15 6L15 4ZM9 5L9 8L8 8L8 9L10 9L10 10L7 10L7 9L6 9L6 10L7 10L7 11L4 11L4 10L3 10L3 11L4 11L4 12L5 12L5 13L3 13L3 14L5 14L5 15L3 15L3 16L5 16L5 17L4 17L4 20L5 20L5 17L6 17L6 18L8 18L8 17L9 17L9 16L10 16L10 18L12 18L12 16L13 16L13 15L14 15L14 14L13 14L13 12L12 12L12 16L10 16L10 15L11 15L11 13L10 13L10 12L7 12L7 11L11 11L11 8L10 8L10 5ZM18 6L18 7L19 7L19 6ZM23 9L23 10L22 10L22 12L23 12L23 10L24 10L24 11L25 11L25 12L26 12L26 11L25 11L25 9ZM26 9L26 10L28 10L28 9ZM1 10L1 11L2 11L2 10ZM6 12L6 13L7 13L7 12ZM9 13L9 14L10 14L10 13ZM6 14L6 15L5 15L5 16L6 16L6 17L7 17L7 16L8 16L8 15L7 15L7 14ZM16 14L16 15L17 15L17 17L16 17L16 18L17 18L17 20L19 20L19 18L17 18L17 17L18 17L18 15L17 15L17 14ZM6 15L6 16L7 16L7 15ZM25 17L25 18L26 18L26 17ZM0 18L0 19L1 19L1 18ZM6 19L6 20L7 20L7 19ZM11 19L11 21L12 21L12 19ZM13 19L13 20L14 20L14 19ZM0 20L0 21L1 21L1 20ZM16 21L16 22L17 22L17 23L18 23L18 24L17 24L17 25L18 25L18 24L19 24L19 23L18 23L18 22L17 22L17 21ZM21 21L21 24L24 24L24 21ZM22 22L22 23L23 23L23 22ZM25 24L25 25L27 25L27 24ZM8 25L8 26L9 26L9 27L8 27L8 29L9 29L9 27L10 27L10 26L9 26L9 25ZM27 26L27 27L28 27L28 26ZM24 28L24 29L25 29L25 28ZM0 0L0 7L7 7L7 0ZM1 1L1 6L6 6L6 1ZM2 2L2 5L5 5L5 2ZM22 0L22 7L29 7L29 0ZM23 1L23 6L28 6L28 1ZM24 2L24 5L27 5L27 2ZM0 22L0 29L7 29L7 22ZM1 23L1 28L6 28L6 23ZM2 24L2 27L5 27L5 24Z" fill="#000000"/></g></g></svg>
