<?xml version="1.0" encoding="UTF-8"?>
<svg xmlns="http://www.w3.org/2000/svg" version="1.1" width="150" height="150" viewBox="0 0 150 150"><rect x="0" y="0" width="150" height="150" fill="#ffffff"/><g transform="scale(2.83)"><g transform="translate(10,10)"><path fill-rule="evenodd" d="M9 0L9 1L8 1L8 2L9 2L9 3L8 3L8 4L10 4L10 7L11 7L11 4L12 4L12 5L13 5L13 6L12 6L12 9L13 9L13 8L14 8L14 9L16 9L16 10L15 10L15 11L14 11L14 12L15 12L15 13L12 13L12 11L13 11L13 10L11 10L11 11L10 11L10 9L11 9L11 8L6 8L6 9L5 9L5 8L0 8L0 10L2 10L2 11L3 11L3 10L4 10L4 12L1 12L1 11L0 11L0 13L3 13L3 14L2 14L2 15L3 15L3 16L1 16L1 15L0 15L0 17L1 17L1 20L0 20L0 25L1 25L1 20L4 20L4 21L2 21L2 22L3 22L3 23L2 23L2 24L3 24L3 25L5 25L5 24L6 24L6 25L7 25L7 24L8 24L8 27L9 27L9 25L10 25L10 26L11 26L11 29L10 29L10 28L8 28L8 33L9 33L9 32L10 32L10 33L11 33L11 29L12 29L12 30L13 30L13 31L12 31L12 33L13 33L13 32L14 32L14 33L16 33L16 32L17 32L17 33L18 33L18 32L19 32L19 33L20 33L20 32L22 32L22 33L25 33L25 32L26 32L26 31L27 31L27 30L29 30L29 29L30 29L30 30L33 30L33 28L31 28L31 27L32 27L32 26L33 26L33 24L32 24L32 26L31 26L31 25L30 25L30 24L31 24L31 23L32 23L32 22L33 22L33 21L32 21L32 20L31 20L31 19L32 19L32 18L33 18L33 17L32 17L32 16L31 16L31 15L32 15L32 14L33 14L33 13L31 13L31 15L30 15L30 16L31 16L31 19L30 19L30 17L29 17L29 16L27 16L27 14L28 14L28 13L30 13L30 12L31 12L31 11L32 11L32 10L33 10L33 9L32 9L32 8L31 8L31 9L30 9L30 8L29 8L29 9L30 9L30 10L27 10L27 9L28 9L28 8L27 8L27 9L26 9L26 8L24 8L24 7L25 7L25 5L24 5L24 4L25 4L25 2L23 2L23 1L24 1L24 0L23 0L23 1L22 1L22 2L21 2L21 1L20 1L20 0L17 0L17 1L15 1L15 0L13 0L13 1L11 1L11 2L10 2L10 0ZM13 1L13 2L12 2L12 4L14 4L14 5L16 5L16 6L15 6L15 7L14 7L14 6L13 6L13 7L14 7L14 8L16 8L16 9L17 9L17 10L16 10L16 11L17 11L17 12L16 12L16 13L15 13L15 14L16 14L16 16L18 16L18 15L17 15L17 14L18 14L18 13L19 13L19 12L20 12L20 13L22 13L22 14L23 14L23 15L22 15L22 16L20 16L20 15L21 15L21 14L19 14L19 16L20 16L20 17L21 17L21 19L22 19L22 18L23 18L23 21L24 21L24 22L23 22L23 25L22 25L22 24L20 24L20 23L22 23L22 22L21 22L21 21L22 21L22 20L20 20L20 22L19 22L19 19L20 19L20 18L18 18L18 19L17 19L17 20L16 20L16 19L15 19L15 18L16 18L16 17L14 17L14 16L15 16L15 15L14 15L14 16L13 16L13 17L12 17L12 15L13 15L13 14L12 14L12 13L11 13L11 12L10 12L10 13L9 13L9 10L8 10L8 9L6 9L6 10L8 10L8 14L7 14L7 13L6 13L6 12L7 12L7 11L6 11L6 12L5 12L5 13L6 13L6 14L5 14L5 15L6 15L6 16L5 16L5 17L3 17L3 18L2 18L2 19L3 19L3 18L5 18L5 19L6 19L6 20L5 20L5 21L4 21L4 23L6 23L6 24L7 24L7 23L6 23L6 22L8 22L8 24L10 24L10 23L9 23L9 22L8 22L8 21L6 21L6 20L7 20L7 19L6 19L6 18L7 18L7 17L6 17L6 16L9 16L9 15L10 15L10 16L11 16L11 17L10 17L10 19L9 19L9 21L10 21L10 22L11 22L11 26L13 26L13 27L12 27L12 29L15 29L15 30L16 30L16 29L17 29L17 28L18 28L18 29L21 29L21 30L23 30L23 31L22 31L22 32L23 32L23 31L24 31L24 32L25 32L25 31L24 31L24 30L25 30L25 29L24 29L24 28L23 28L23 27L22 27L22 26L24 26L24 24L25 24L25 22L26 22L26 24L28 24L28 22L29 22L29 21L30 21L30 23L31 23L31 20L30 20L30 19L29 19L29 17L27 17L27 16L26 16L26 17L24 17L24 16L23 16L23 15L24 15L24 14L26 14L26 13L27 13L27 12L28 12L28 11L27 11L27 10L26 10L26 9L25 9L25 11L24 11L24 10L23 10L23 8L20 8L20 9L21 9L21 11L20 11L20 10L18 10L18 9L19 9L19 7L20 7L20 6L21 6L21 7L22 7L22 6L21 6L21 5L23 5L23 7L24 7L24 5L23 5L23 4L24 4L24 3L23 3L23 4L22 4L22 3L21 3L21 2L20 2L20 1L18 1L18 2L17 2L17 3L16 3L16 2L15 2L15 1ZM14 2L14 3L15 3L15 2ZM19 2L19 5L21 5L21 4L20 4L20 2ZM10 3L10 4L11 4L11 3ZM17 3L17 4L18 4L18 3ZM8 5L8 7L9 7L9 5ZM17 5L17 6L16 6L16 8L17 8L17 9L18 9L18 8L17 8L17 6L18 6L18 7L19 7L19 6L18 6L18 5ZM22 10L22 11L21 11L21 12L22 12L22 13L23 13L23 14L24 14L24 13L26 13L26 12L27 12L27 11L25 11L25 12L24 12L24 13L23 13L23 10ZM30 10L30 11L29 11L29 12L30 12L30 11L31 11L31 10ZM17 12L17 13L16 13L16 14L17 14L17 13L18 13L18 12ZM10 13L10 14L11 14L11 13ZM6 14L6 15L7 15L7 14ZM8 14L8 15L9 15L9 14ZM22 16L22 17L23 17L23 18L24 18L24 17L23 17L23 16ZM26 17L26 18L25 18L25 19L26 19L26 18L27 18L27 19L28 19L28 18L27 18L27 17ZM11 18L11 19L10 19L10 20L11 20L11 21L12 21L12 22L13 22L13 23L12 23L12 25L13 25L13 24L14 24L14 25L16 25L16 26L15 26L15 27L14 27L14 28L17 28L17 27L16 27L16 26L18 26L18 27L19 27L19 26L20 26L20 27L21 27L21 28L22 28L22 29L23 29L23 28L22 28L22 27L21 27L21 25L18 25L18 24L17 24L17 23L19 23L19 22L15 22L15 21L12 21L12 19L13 19L13 18ZM14 19L14 20L15 20L15 19ZM17 20L17 21L18 21L18 20ZM24 20L24 21L26 21L26 22L27 22L27 21L29 21L29 20L27 20L27 21L26 21L26 20ZM14 23L14 24L15 24L15 23ZM16 24L16 25L17 25L17 24ZM25 25L25 28L28 28L28 25ZM29 25L29 26L30 26L30 25ZM26 26L26 27L27 27L27 26ZM30 28L30 29L31 29L31 28ZM9 29L9 31L10 31L10 29ZM26 29L26 30L27 30L27 29ZM18 30L18 31L17 31L17 32L18 32L18 31L20 31L20 30ZM14 31L14 32L16 32L16 31ZM28 31L28 32L27 32L27 33L28 33L28 32L31 32L31 33L32 33L32 32L31 32L31 31ZM0 0L0 7L7 7L7 0ZM1 1L1 6L6 6L6 1ZM2 2L2 5L5 5L5 2ZM26 0L26 7L33 7L33 0ZM27 1L27 6L32 6L32 1ZM28 2L28 5L31 5L31 2ZM0 26L0 33L7 33L7 26ZM1 27L1 32L6 32L6 27ZM2 28L2 31L5 31L5 28Z" fill="#000000"/></g></g></svg>
