<?xml version="1.0" encoding="UTF-8"?>
<svg xmlns="http://www.w3.org/2000/svg" version="1.1" width="150" height="150" viewBox="0 0 150 150"><rect x="0" y="0" width="150" height="150" fill="#ffffff"/><g transform="scale(6)"><g transform="translate(0,0)"><path fill-rule="evenodd" d="M8 0L8 1L9 1L9 0ZM11 0L11 1L10 1L10 4L11 4L11 3L12 3L12 2L13 2L13 4L12 4L12 7L11 7L11 5L10 5L10 8L8 8L8 9L7 9L7 8L6 8L6 9L7 9L7 10L5 10L5 9L4 9L4 8L0 8L0 10L1 10L1 9L2 9L2 10L5 10L5 11L3 11L3 14L2 14L2 12L1 12L1 15L0 15L0 16L1 16L1 15L2 15L2 17L3 17L3 15L4 15L4 16L5 16L5 15L8 15L8 14L9 14L9 13L10 13L10 12L9 12L9 11L8 11L8 9L10 9L10 8L11 8L11 10L10 10L10 11L12 11L12 12L11 12L11 13L12 13L12 15L14 15L14 16L10 16L10 15L11 15L11 14L10 14L10 15L9 15L9 16L10 16L10 17L8 17L8 18L12 18L12 19L14 19L14 22L12 22L12 21L13 21L13 20L12 20L12 21L11 21L11 22L10 22L10 20L9 20L9 21L8 21L8 25L15 25L15 24L16 24L16 22L15 22L15 20L16 20L16 21L17 21L17 23L18 23L18 25L25 25L25 24L23 24L23 23L24 23L24 22L23 22L23 21L22 21L22 20L21 20L21 17L22 17L22 19L23 19L23 20L24 20L24 19L25 19L25 15L24 15L24 14L25 14L25 12L23 12L23 11L21 11L21 12L20 12L20 13L19 13L19 12L18 12L18 11L20 11L20 9L23 9L23 10L24 10L24 9L25 9L25 8L24 8L24 9L23 9L23 8L20 8L20 9L19 9L19 10L17 10L17 9L18 9L18 8L16 8L16 7L17 7L17 6L16 6L16 7L15 7L15 5L17 5L17 4L14 4L14 3L16 3L16 2L17 2L17 0L16 0L16 2L13 2L13 1L14 1L14 0L13 0L13 1L12 1L12 0ZM8 2L8 5L9 5L9 2ZM13 5L13 7L12 7L12 11L14 11L14 12L15 12L15 13L16 13L16 14L14 14L14 13L13 13L13 14L14 14L14 15L15 15L15 16L14 16L14 17L13 17L13 18L15 18L15 19L16 19L16 16L18 16L18 15L20 15L20 14L18 14L18 13L17 13L17 10L16 10L16 8L15 8L15 7L14 7L14 5ZM8 6L8 7L9 7L9 6ZM14 8L14 10L15 10L15 8ZM5 11L5 12L4 12L4 13L5 13L5 14L4 14L4 15L5 15L5 14L8 14L8 13L5 13L5 12L8 12L8 11ZM15 11L15 12L16 12L16 11ZM21 12L21 16L24 16L24 15L22 15L22 14L24 14L24 13L22 13L22 12ZM16 14L16 15L18 15L18 14ZM6 16L6 17L7 17L7 16ZM17 17L17 20L20 20L20 17ZM23 17L23 18L24 18L24 17ZM18 18L18 19L19 19L19 18ZM19 21L19 24L20 24L20 21ZM9 22L9 24L10 24L10 22ZM14 22L14 24L15 24L15 22ZM21 22L21 24L22 24L22 22ZM11 23L11 24L13 24L13 23ZM0 0L0 7L7 7L7 0ZM1 1L1 6L6 6L6 1ZM2 2L2 5L5 5L5 2ZM18 0L18 7L25 7L25 0ZM19 1L19 6L24 6L24 1ZM20 2L20 5L23 5L23 2ZM0 18L0 25L7 25L7 18ZM1 19L1 24L6 24L6 19ZM2 20L2 23L5 23L5 20Z" fill="#000000"/></g></g></svg>
