<?xml version="1.0" encoding="UTF-8"?>
<svg xmlns="http://www.w3.org/2000/svg" version="1.1" width="150" height="150" viewBox="0 0 150 150"><rect x="0" y="0" width="150" height="150" fill="#ffffff"/><g transform="scale(4.545)"><g transform="translate(0,0)"><path fill-rule="evenodd" d="M9 0L9 1L8 1L8 2L9 2L9 3L8 3L8 4L9 4L9 5L8 5L8 7L9 7L9 8L6 8L6 9L10 9L10 7L11 7L11 8L12 8L12 7L13 7L13 6L14 6L14 7L15 7L15 8L16 8L16 9L19 9L19 10L17 10L17 11L16 11L16 10L15 10L15 9L14 9L14 8L13 8L13 9L11 9L11 10L10 10L10 11L11 11L11 10L12 10L12 12L13 12L13 13L11 13L11 12L9 12L9 11L8 11L8 12L6 12L6 11L7 11L7 10L6 10L6 11L5 11L5 12L4 12L4 13L5 13L5 14L6 14L6 15L4 15L4 14L3 14L3 13L2 13L2 11L3 11L3 10L5 10L5 8L0 8L0 9L1 9L1 10L0 10L0 13L2 13L2 15L0 15L0 16L2 16L2 17L0 17L0 18L1 18L1 19L2 19L2 18L4 18L4 19L3 19L3 20L2 20L2 21L1 21L1 20L0 20L0 25L1 25L1 22L5 22L5 23L7 23L7 22L5 22L5 21L8 21L8 17L9 17L9 18L13 18L13 17L14 17L14 18L15 18L15 19L14 19L14 20L13 20L13 21L11 21L11 22L12 22L12 23L13 23L13 21L14 21L14 24L13 24L13 25L11 25L11 23L10 23L10 19L9 19L9 22L8 22L8 23L10 23L10 25L9 25L9 24L4 24L4 25L8 25L8 27L10 27L10 28L11 28L11 27L10 27L10 25L11 25L11 26L12 26L12 27L13 27L13 26L15 26L15 27L16 27L16 26L15 26L15 25L16 25L16 24L17 24L17 25L19 25L19 26L20 26L20 28L15 28L15 29L14 29L14 28L13 28L13 29L11 29L11 30L10 30L10 29L9 29L9 28L8 28L8 33L11 33L11 32L9 32L9 31L11 31L11 30L13 30L13 31L12 31L12 32L13 32L13 33L14 33L14 32L13 32L13 31L19 31L19 30L20 30L20 29L21 29L21 28L22 28L22 29L23 29L23 28L24 28L24 29L25 29L25 30L26 30L26 32L24 32L24 33L27 33L27 31L28 31L28 32L29 32L29 33L30 33L30 32L31 32L31 33L32 33L32 32L31 32L31 31L32 31L32 30L31 30L31 29L33 29L33 28L32 28L32 26L33 26L33 24L32 24L32 26L31 26L31 25L30 25L30 24L31 24L31 23L32 23L32 22L33 22L33 21L32 21L32 20L31 20L31 19L32 19L32 18L33 18L33 17L32 17L32 16L31 16L31 15L32 15L32 14L33 14L33 13L31 13L31 15L30 15L30 16L31 16L31 19L30 19L30 17L29 17L29 16L28 16L28 15L26 15L26 16L23 16L23 14L25 14L25 13L26 13L26 14L27 14L27 13L30 13L30 12L31 12L31 11L32 11L32 10L33 10L33 9L32 9L32 8L31 8L31 9L30 9L30 8L29 8L29 9L30 9L30 10L28 10L28 11L27 11L27 13L26 13L26 10L27 10L27 9L28 9L28 8L27 8L27 9L26 9L26 8L25 8L25 5L24 5L24 4L25 4L25 1L24 1L24 0L23 0L23 1L22 1L22 2L21 2L21 1L20 1L20 0L19 0L19 1L18 1L18 0L16 0L16 1L14 1L14 0ZM9 1L9 2L10 2L10 1ZM11 1L11 3L9 3L9 4L11 4L11 3L12 3L12 4L13 4L13 3L14 3L14 5L16 5L16 4L17 4L17 5L19 5L19 7L18 7L18 6L17 6L17 8L19 8L19 9L20 9L20 10L19 10L19 11L17 11L17 12L19 12L19 13L17 13L17 16L16 16L16 17L15 17L15 14L16 14L16 13L15 13L15 11L14 11L14 9L13 9L13 12L14 12L14 13L13 13L13 16L11 16L11 15L12 15L12 14L11 14L11 13L9 13L9 12L8 12L8 13L6 13L6 12L5 12L5 13L6 13L6 14L7 14L7 15L6 15L6 16L7 16L7 17L6 17L6 18L7 18L7 17L8 17L8 16L9 16L9 15L10 15L10 17L13 17L13 16L14 16L14 17L15 17L15 18L16 18L16 17L17 17L17 18L18 18L18 19L15 19L15 20L14 20L14 21L15 21L15 22L16 22L16 23L15 23L15 24L14 24L14 25L15 25L15 24L16 24L16 23L17 23L17 24L18 24L18 23L20 23L20 24L19 24L19 25L20 25L20 26L21 26L21 27L22 27L22 28L23 28L23 26L24 26L24 24L23 24L23 23L25 23L25 22L26 22L26 21L27 21L27 22L29 22L29 21L30 21L30 23L31 23L31 20L30 20L30 19L27 19L27 20L26 20L26 21L24 21L24 22L23 22L23 21L22 21L22 20L21 20L21 19L22 19L22 17L23 17L23 16L21 16L21 15L22 15L22 14L23 14L23 12L21 12L21 13L20 13L20 12L19 12L19 11L22 11L22 10L23 10L23 11L24 11L24 12L25 12L25 10L26 10L26 9L25 9L25 8L24 8L24 5L23 5L23 7L22 7L22 6L21 6L21 4L22 4L22 3L21 3L21 2L20 2L20 1L19 1L19 2L18 2L18 1L17 1L17 3L16 3L16 2L15 2L15 3L14 3L14 1L13 1L13 3L12 3L12 1ZM23 1L23 3L24 3L24 1ZM15 3L15 4L16 4L16 3ZM17 3L17 4L19 4L19 5L20 5L20 4L21 4L21 3L20 3L20 4L19 4L19 3ZM9 5L9 7L10 7L10 6L11 6L11 7L12 7L12 5ZM15 6L15 7L16 7L16 6ZM20 6L20 7L19 7L19 8L20 8L20 9L21 9L21 8L22 8L22 9L23 9L23 10L24 10L24 9L23 9L23 8L22 8L22 7L21 7L21 6ZM20 7L20 8L21 8L21 7ZM2 9L2 10L3 10L3 9ZM30 10L30 11L28 11L28 12L30 12L30 11L31 11L31 10ZM14 13L14 14L15 14L15 13ZM19 13L19 14L18 14L18 16L17 16L17 17L19 17L19 18L20 18L20 17L21 17L21 16L19 16L19 14L20 14L20 15L21 15L21 14L20 14L20 13ZM8 14L8 15L7 15L7 16L8 16L8 15L9 15L9 14ZM2 15L2 16L3 16L3 15ZM26 16L26 17L24 17L24 18L23 18L23 19L24 19L24 20L25 20L25 18L26 18L26 17L27 17L27 18L29 18L29 17L27 17L27 16ZM5 19L5 20L7 20L7 19ZM18 19L18 20L15 20L15 21L16 21L16 22L17 22L17 23L18 23L18 22L17 22L17 21L19 21L19 22L20 22L20 21L21 21L21 22L22 22L22 23L21 23L21 24L20 24L20 25L21 25L21 26L22 26L22 25L23 25L23 24L22 24L22 23L23 23L23 22L22 22L22 21L21 21L21 20L19 20L19 19ZM3 20L3 21L4 21L4 20ZM27 20L27 21L29 21L29 20ZM27 23L27 24L28 24L28 23ZM21 24L21 25L22 25L22 24ZM25 25L25 28L28 28L28 25ZM17 26L17 27L18 27L18 26ZM26 26L26 27L27 27L27 26ZM30 26L30 27L31 27L31 26ZM30 28L30 29L31 29L31 28ZM13 29L13 30L14 30L14 29ZM15 29L15 30L19 30L19 29ZM26 29L26 30L27 30L27 29ZM21 30L21 31L20 31L20 32L22 32L22 33L23 33L23 31L24 31L24 30L23 30L23 31L22 31L22 30ZM28 30L28 31L29 31L29 30ZM30 30L30 31L31 31L31 30ZM15 32L15 33L19 33L19 32ZM0 0L0 7L7 7L7 0ZM1 1L1 6L6 6L6 1ZM2 2L2 5L5 5L5 2ZM26 0L26 7L33 7L33 0ZM27 1L27 6L32 6L32 1ZM28 2L28 5L31 5L31 2ZM0 26L0 33L7 33L7 26ZM1 27L1 32L6 32L6 27ZM2 28L2 31L5 31L5 28Z" fill="#000000"/></g></g></svg>
