<?xml version="1.0" encoding="UTF-8"?>
<svg xmlns="http://www.w3.org/2000/svg" version="1.1" width="150" height="150" viewBox="0 0 150 150"><rect x="0" y="0" width="150" height="150" fill="#ffffff"/><g transform="scale(6)"><g transform="translate(0,0)"><path fill-rule="evenodd" d="M8 0L8 1L10 1L10 0ZM13 0L13 1L14 1L14 2L11 2L11 4L10 4L10 3L9 3L9 2L8 2L8 5L9 5L9 6L8 6L8 7L9 7L9 8L8 8L8 9L9 9L9 10L10 10L10 9L9 9L9 8L10 8L10 7L11 7L11 8L12 8L12 7L13 7L13 6L14 6L14 7L15 7L15 8L13 8L13 9L14 9L14 11L11 11L11 13L10 13L10 12L8 12L8 11L7 11L7 10L6 10L6 9L7 9L7 8L6 8L6 9L4 9L4 8L0 8L0 10L2 10L2 11L1 11L1 12L0 12L0 13L2 13L2 11L3 11L3 12L4 12L4 11L5 11L5 12L6 12L6 13L8 13L8 15L9 15L9 16L5 16L5 14L4 14L4 13L3 13L3 14L4 14L4 16L3 16L3 15L2 15L2 14L1 14L1 15L0 15L0 16L1 16L1 15L2 15L2 16L3 16L3 17L4 17L4 16L5 16L5 17L8 17L8 18L10 18L10 17L12 17L12 18L11 18L11 19L10 19L10 20L11 20L11 21L12 21L12 22L10 22L10 21L8 21L8 25L9 25L9 22L10 22L10 25L11 25L11 23L14 23L14 20L16 20L16 21L15 21L15 23L17 23L17 24L19 24L19 25L25 25L25 24L23 24L23 23L24 23L24 22L25 22L25 21L24 21L24 20L25 20L25 15L24 15L24 14L25 14L25 12L23 12L23 11L21 11L21 12L20 12L20 9L23 9L23 10L24 10L24 9L25 9L25 8L24 8L24 9L23 9L23 8L20 8L20 9L19 9L19 12L18 12L18 11L17 11L17 10L18 10L18 8L17 8L17 9L15 9L15 8L16 8L16 7L17 7L17 4L16 4L16 2L15 2L15 0ZM16 0L16 1L17 1L17 0ZM12 3L12 5L10 5L10 6L9 6L9 7L10 7L10 6L11 6L11 7L12 7L12 5L13 5L13 3ZM14 3L14 6L15 6L15 7L16 7L16 4L15 4L15 3ZM3 9L3 10L4 10L4 9ZM5 10L5 11L6 11L6 12L7 12L7 11L6 11L6 10ZM15 10L15 11L14 11L14 12L12 12L12 14L10 14L10 15L11 15L11 16L12 16L12 17L13 17L13 16L15 16L15 15L16 15L16 16L18 16L18 15L20 15L20 14L18 14L18 13L17 13L17 11L16 11L16 10ZM15 11L15 12L14 12L14 13L13 13L13 14L12 14L12 16L13 16L13 15L14 15L14 14L16 14L16 13L15 13L15 12L16 12L16 11ZM19 12L19 13L20 13L20 12ZM21 12L21 16L24 16L24 15L22 15L22 14L24 14L24 13L22 13L22 12ZM6 14L6 15L7 15L7 14ZM17 14L17 15L18 15L18 14ZM17 17L17 20L20 20L20 17ZM21 17L21 20L22 20L22 21L23 21L23 19L22 19L22 17ZM23 17L23 18L24 18L24 17ZM14 18L14 19L13 19L13 20L14 20L14 19L16 19L16 18ZM18 18L18 19L19 19L19 18ZM11 19L11 20L12 20L12 19ZM16 21L16 22L18 22L18 21ZM19 21L19 24L20 24L20 21ZM21 22L21 24L22 24L22 22ZM12 24L12 25L13 25L13 24ZM14 24L14 25L15 25L15 24ZM0 0L0 7L7 7L7 0ZM1 1L1 6L6 6L6 1ZM2 2L2 5L5 5L5 2ZM18 0L18 7L25 7L25 0ZM19 1L19 6L24 6L24 1ZM20 2L20 5L23 5L23 2ZM0 18L0 25L7 25L7 18ZM1 19L1 24L6 24L6 19ZM2 20L2 23L5 23L5 20Z" fill="#000000"/></g></g></svg>
