<?xml version="1.0" encoding="UTF-8"?>
<svg xmlns="http://www.w3.org/2000/svg" version="1.1" width="150" height="150" viewBox="0 0 150 150"><rect x="0" y="0" width="150" height="150" fill="#ffffff"/><g transform="scale(3.061)"><g transform="translate(10,10)"><path fill-rule="evenodd" d="M8 0L8 4L10 4L10 3L11 3L11 4L12 4L12 2L11 2L11 0ZM12 0L12 1L14 1L14 3L13 3L13 5L11 5L11 6L10 6L10 7L9 7L9 5L8 5L8 7L9 7L9 8L10 8L10 7L11 7L11 6L12 6L12 8L11 8L11 9L8 9L8 10L6 10L6 11L5 11L5 10L4 10L4 11L5 11L5 13L4 13L4 12L3 12L3 11L0 11L0 15L1 15L1 17L0 17L0 18L2 18L2 19L3 19L3 21L4 21L4 19L7 19L7 20L5 20L5 21L7 21L7 20L8 20L8 19L10 19L10 20L9 20L9 21L8 21L8 22L9 22L9 21L11 21L11 20L12 20L12 21L13 21L13 23L12 23L12 24L11 24L11 25L10 25L10 24L9 24L9 23L8 23L8 25L9 25L9 27L8 27L8 29L10 29L10 28L9 28L9 27L11 27L11 28L12 28L12 29L14 29L14 27L15 27L15 29L16 29L16 27L17 27L17 29L18 29L18 28L19 28L19 27L18 27L18 26L20 26L20 25L21 25L21 27L20 27L20 29L22 29L22 28L23 28L23 29L25 29L25 28L26 28L26 27L27 27L27 29L28 29L28 28L29 28L29 24L28 24L28 23L29 23L29 17L28 17L28 16L29 16L29 13L28 13L28 12L29 12L29 8L25 8L25 9L24 9L24 8L23 8L23 9L22 9L22 11L21 11L21 5L19 5L19 3L20 3L20 1L19 1L19 0L15 0L15 1L14 1L14 0ZM15 1L15 2L16 2L16 3L17 3L17 4L18 4L18 3L17 3L17 2L16 2L16 1ZM18 1L18 2L19 2L19 1ZM9 2L9 3L10 3L10 2ZM14 4L14 5L15 5L15 7L14 7L14 6L13 6L13 8L12 8L12 9L11 9L11 10L8 10L8 11L6 11L6 12L7 12L7 13L5 13L5 14L4 14L4 16L2 16L2 17L3 17L3 18L4 18L4 17L5 17L5 14L7 14L7 13L9 13L9 15L10 15L10 14L11 14L11 16L12 16L12 17L11 17L11 18L10 18L10 16L7 16L7 15L6 15L6 16L7 16L7 17L6 17L6 18L8 18L8 17L9 17L9 18L10 18L10 19L11 19L11 18L12 18L12 17L14 17L14 18L13 18L13 19L12 19L12 20L13 20L13 21L14 21L14 23L13 23L13 24L12 24L12 25L11 25L11 26L12 26L12 25L13 25L13 26L14 26L14 25L13 25L13 24L14 24L14 23L15 23L15 21L17 21L17 22L16 22L16 23L17 23L17 22L19 22L19 21L20 21L20 20L18 20L18 21L17 21L17 20L16 20L16 19L18 19L18 18L16 18L16 19L14 19L14 18L15 18L15 17L16 17L16 16L17 16L17 15L16 15L16 16L15 16L15 12L14 12L14 11L12 11L12 12L11 12L11 13L10 13L10 11L11 11L11 10L12 10L12 9L13 9L13 10L14 10L14 9L16 9L16 8L17 8L17 7L18 7L18 6L19 6L19 7L20 7L20 6L19 6L19 5L15 5L15 4ZM16 6L16 7L17 7L17 6ZM0 8L0 9L1 9L1 10L3 10L3 9L2 9L2 8ZM4 8L4 9L7 9L7 8ZM19 8L19 11L20 11L20 12L18 12L18 13L17 13L17 12L16 12L16 13L17 13L17 14L19 14L19 15L18 15L18 17L19 17L19 19L20 19L20 18L22 18L22 17L23 17L23 16L24 16L24 17L26 17L26 18L25 18L25 19L24 19L24 18L23 18L23 19L21 19L21 20L26 20L26 21L25 21L25 22L27 22L27 23L25 23L25 24L26 24L26 25L24 25L24 26L23 26L23 25L22 25L22 27L21 27L21 28L22 28L22 27L23 27L23 28L24 28L24 27L25 27L25 26L28 26L28 24L27 24L27 23L28 23L28 20L27 20L27 19L28 19L28 18L27 18L27 15L28 15L28 14L27 14L27 15L24 15L24 13L27 13L27 11L28 11L28 10L25 10L25 11L26 11L26 12L24 12L24 11L22 11L22 13L20 13L20 12L21 12L21 11L20 11L20 8ZM16 10L16 11L18 11L18 10ZM8 11L8 12L9 12L9 11ZM12 12L12 13L13 13L13 15L12 15L12 16L13 16L13 15L14 15L14 13L13 13L13 12ZM2 13L2 14L3 14L3 13ZM22 13L22 14L20 14L20 15L19 15L19 16L20 16L20 17L22 17L22 16L23 16L23 13ZM21 15L21 16L22 16L22 15ZM26 18L26 19L27 19L27 18ZM0 20L0 21L2 21L2 20ZM21 21L21 24L24 24L24 21ZM10 22L10 23L11 23L11 22ZM22 22L22 23L23 23L23 22ZM18 23L18 25L17 25L17 24L15 24L15 25L17 25L17 26L18 26L18 25L19 25L19 23ZM12 27L12 28L13 28L13 27ZM0 0L0 7L7 7L7 0ZM1 1L1 6L6 6L6 1ZM2 2L2 5L5 5L5 2ZM22 0L22 7L29 7L29 0ZM23 1L23 6L28 6L28 1ZM24 2L24 5L27 5L27 2ZM0 22L0 29L7 29L7 22ZM1 23L1 28L6 28L6 23ZM2 24L2 27L5 27L5 24Z" fill="#000000"/></g></g></svg>
