<?xml version="1.0" encoding="UTF-8"?>
<svg xmlns="http://www.w3.org/2000/svg" version="1.1" width="200" height="200" viewBox="0 0 200 200"><rect x="0" y="0" width="200" height="200" fill="#ffffff"/><g transform="scale(4.082)"><g transform="translate(10,10)"><path fill-rule="evenodd" d="M8 0L8 4L9 4L9 5L8 5L8 7L9 7L9 6L10 6L10 9L11 9L11 8L12 8L12 9L13 9L13 8L12 8L12 7L13 7L13 6L14 6L14 7L15 7L15 8L14 8L14 10L13 10L13 11L12 11L12 12L11 12L11 13L9 13L9 12L10 12L10 11L11 11L11 10L9 10L9 9L8 9L8 13L7 13L7 12L6 12L6 11L7 11L7 10L4 10L4 9L7 9L7 8L4 8L4 9L3 9L3 10L2 10L2 8L0 8L0 9L1 9L1 12L3 12L3 13L4 13L4 15L5 15L5 13L7 13L7 14L6 14L6 15L7 15L7 16L4 16L4 17L8 17L8 16L9 16L9 15L7 15L7 14L10 14L10 15L11 15L11 16L10 16L10 17L9 17L9 18L10 18L10 19L9 19L9 20L11 20L11 21L8 21L8 19L7 19L7 18L6 18L6 19L4 19L4 20L3 20L3 14L2 14L2 13L0 13L0 16L1 16L1 17L0 17L0 18L1 18L1 17L2 17L2 20L0 20L0 21L4 21L4 20L5 20L5 21L8 21L8 22L10 22L10 23L11 23L11 24L10 24L10 25L9 25L9 23L8 23L8 25L9 25L9 26L11 26L11 24L12 24L12 25L13 25L13 26L15 26L15 27L14 27L14 28L13 28L13 27L12 27L12 28L11 28L11 29L12 29L12 28L13 28L13 29L16 29L16 28L17 28L17 29L18 29L18 27L20 27L20 28L19 28L19 29L21 29L21 26L22 26L22 25L26 25L26 23L27 23L27 22L25 22L25 21L26 21L26 20L24 20L24 19L27 19L27 20L28 20L28 26L27 26L27 29L28 29L28 28L29 28L29 17L28 17L28 16L29 16L29 13L28 13L28 12L29 12L29 8L25 8L25 9L24 9L24 8L23 8L23 9L22 9L22 10L20 10L20 11L19 11L19 9L21 9L21 8L20 8L20 7L21 7L21 6L20 6L20 5L19 5L19 4L20 4L20 3L21 3L21 2L20 2L20 1L19 1L19 0L18 0L18 1L19 1L19 3L18 3L18 2L17 2L17 0L13 0L13 1L11 1L11 2L12 2L12 5L13 5L13 6L12 6L12 7L11 7L11 3L10 3L10 2L9 2L9 0ZM15 1L15 4L16 4L16 3L17 3L17 5L14 5L14 6L15 6L15 7L16 7L16 9L17 9L17 7L18 7L18 6L19 6L19 7L20 7L20 6L19 6L19 5L18 5L18 3L17 3L17 2L16 2L16 1ZM13 2L13 3L14 3L14 2ZM16 6L16 7L17 7L17 6ZM17 10L17 11L18 11L18 10ZM22 10L22 11L23 11L23 12L22 12L22 13L21 13L21 12L18 12L18 13L17 13L17 14L16 14L16 16L15 16L15 13L16 13L16 12L15 12L15 13L14 13L14 11L13 11L13 12L12 12L12 13L11 13L11 14L12 14L12 13L14 13L14 15L12 15L12 16L11 16L11 17L10 17L10 18L11 18L11 20L12 20L12 21L11 21L11 22L12 22L12 21L13 21L13 22L14 22L14 21L13 21L13 20L16 20L16 23L14 23L14 25L17 25L17 24L16 24L16 23L18 23L18 25L19 25L19 26L21 26L21 25L19 25L19 23L20 23L20 21L19 21L19 20L23 20L23 19L24 19L24 18L23 18L23 19L20 19L20 18L21 18L21 16L22 16L22 17L25 17L25 18L27 18L27 19L28 19L28 18L27 18L27 15L28 15L28 14L27 14L27 11L28 11L28 10L24 10L24 11L23 11L23 10ZM3 11L3 12L5 12L5 11ZM24 11L24 12L25 12L25 11ZM19 13L19 14L20 14L20 13ZM22 13L22 14L26 14L26 15L27 15L27 14L26 14L26 13ZM1 14L1 15L2 15L2 14ZM17 14L17 16L16 16L16 17L15 17L15 16L14 16L14 17L13 17L13 16L12 16L12 17L13 17L13 18L14 18L14 19L16 19L16 18L17 18L17 21L18 21L18 22L19 22L19 21L18 21L18 20L19 20L19 18L20 18L20 15L19 15L19 18L17 18L17 17L18 17L18 14ZM23 15L23 16L24 16L24 15ZM25 16L25 17L26 17L26 16ZM14 17L14 18L15 18L15 17ZM6 19L6 20L7 20L7 19ZM12 19L12 20L13 20L13 19ZM21 21L21 24L24 24L24 21ZM22 22L22 23L23 23L23 22ZM12 23L12 24L13 24L13 23ZM16 26L16 27L17 27L17 26ZM8 27L8 29L10 29L10 27ZM22 27L22 28L23 28L23 29L24 29L24 28L25 28L25 29L26 29L26 27L24 27L24 28L23 28L23 27ZM0 0L0 7L7 7L7 0ZM1 1L1 6L6 6L6 1ZM2 2L2 5L5 5L5 2ZM22 0L22 7L29 7L29 0ZM23 1L23 6L28 6L28 1ZM24 2L24 5L27 5L27 2ZM0 22L0 29L7 29L7 22ZM1 23L1 28L6 28L6 23ZM2 24L2 27L5 27L5 24Z" fill="#000000"/></g></g></svg>
