<?xml version="1.0" encoding="UTF-8"?>
<svg xmlns="http://www.w3.org/2000/svg" version="1.1" width="200" height="200" viewBox="0 0 200 200"><rect x="0" y="0" width="200" height="200" fill="#ffffff"/><g transform="scale(3.774)"><g transform="translate(10,10)"><path fill-rule="evenodd" d="M10 0L10 2L11 2L11 0ZM12 0L12 1L13 1L13 0ZM16 0L16 1L14 1L14 3L13 3L13 2L12 2L12 4L13 4L13 5L11 5L11 6L10 6L10 4L11 4L11 3L8 3L8 4L9 4L9 5L8 5L8 7L9 7L9 8L6 8L6 9L8 9L8 10L6 10L6 11L8 11L8 10L9 10L9 9L10 9L10 11L11 11L11 9L12 9L12 10L13 10L13 9L14 9L14 11L15 11L15 12L17 12L17 13L16 13L16 14L15 14L15 13L14 13L14 12L13 12L13 11L12 11L12 13L14 13L14 14L11 14L11 15L10 15L10 13L11 13L11 12L9 12L9 13L7 13L7 12L4 12L4 10L5 10L5 8L0 8L0 9L1 9L1 11L3 11L3 12L4 12L4 13L7 13L7 14L6 14L6 15L7 15L7 14L8 14L8 16L9 16L9 15L10 15L10 16L11 16L11 17L12 17L12 18L13 18L13 19L12 19L12 21L13 21L13 20L14 20L14 21L15 21L15 20L14 20L14 19L16 19L16 20L17 20L17 21L18 21L18 20L17 20L17 19L18 19L18 18L20 18L20 19L19 19L19 22L15 22L15 23L14 23L14 24L15 24L15 25L12 25L12 23L13 23L13 22L10 22L10 21L9 21L9 22L10 22L10 23L8 23L8 22L6 22L6 21L8 21L8 20L9 20L9 19L10 19L10 20L11 20L11 19L10 19L10 17L8 17L8 18L6 18L6 19L5 19L5 17L7 17L7 16L4 16L4 19L3 19L3 18L2 18L2 17L3 17L3 15L1 15L1 14L3 14L3 13L1 13L1 12L0 12L0 15L1 15L1 16L0 16L0 17L1 17L1 18L0 18L0 19L1 19L1 18L2 18L2 20L0 20L0 25L1 25L1 21L2 21L2 20L3 20L3 22L4 22L4 20L6 20L6 21L5 21L5 22L6 22L6 23L8 23L8 24L5 24L5 25L8 25L8 27L10 27L10 28L8 28L8 33L12 33L12 31L13 31L13 30L9 30L9 29L10 29L10 28L11 28L11 26L9 26L9 25L10 25L10 24L11 24L11 25L12 25L12 26L13 26L13 27L12 27L12 29L13 29L13 28L14 28L14 29L15 29L15 28L17 28L17 29L16 29L16 30L15 30L15 31L14 31L14 32L15 32L15 33L16 33L16 32L17 32L17 33L18 33L18 32L19 32L19 33L20 33L20 32L22 32L22 33L25 33L25 32L26 32L26 31L27 31L27 30L29 30L29 29L30 29L30 30L33 30L33 27L32 27L32 26L33 26L33 24L32 24L32 26L31 26L31 25L30 25L30 24L31 24L31 23L32 23L32 22L33 22L33 21L32 21L32 20L31 20L31 19L32 19L32 18L33 18L33 17L32 17L32 16L31 16L31 15L32 15L32 14L33 14L33 13L31 13L31 15L30 15L30 16L31 16L31 19L30 19L30 17L29 17L29 16L27 16L27 14L28 14L28 13L30 13L30 12L31 12L31 11L32 11L32 10L33 10L33 9L32 9L32 8L31 8L31 9L30 9L30 8L29 8L29 9L30 9L30 10L27 10L27 9L28 9L28 8L27 8L27 9L26 9L26 8L24 8L24 7L25 7L25 5L24 5L24 4L25 4L25 2L23 2L23 1L24 1L24 0L23 0L23 1L22 1L22 2L21 2L21 1L20 1L20 0ZM8 1L8 2L9 2L9 1ZM18 1L18 2L17 2L17 3L16 3L16 2L15 2L15 3L14 3L14 5L16 5L16 4L17 4L17 5L18 5L18 6L17 6L17 7L16 7L16 6L15 6L15 7L16 7L16 9L15 9L15 8L14 8L14 6L13 6L13 7L12 7L12 6L11 6L11 7L12 7L12 9L13 9L13 8L14 8L14 9L15 9L15 10L16 10L16 9L17 9L17 12L18 12L18 13L17 13L17 14L18 14L18 13L19 13L19 12L20 12L20 13L22 13L22 14L23 14L23 15L22 15L22 16L20 16L20 15L21 15L21 14L19 14L19 16L20 16L20 17L21 17L21 19L22 19L22 18L23 18L23 21L24 21L24 22L23 22L23 25L22 25L22 24L20 24L20 23L22 23L22 22L21 22L21 21L22 21L22 20L20 20L20 22L19 22L19 23L17 23L17 24L16 24L16 25L15 25L15 26L16 26L16 27L17 27L17 28L18 28L18 29L21 29L21 30L23 30L23 31L22 31L22 32L23 32L23 31L24 31L24 32L25 32L25 31L24 31L24 30L25 30L25 29L24 29L24 28L23 28L23 27L22 27L22 26L24 26L24 24L25 24L25 22L26 22L26 24L28 24L28 22L29 22L29 21L30 21L30 23L31 23L31 20L30 20L30 19L29 19L29 17L27 17L27 16L26 16L26 17L24 17L24 16L23 16L23 15L24 15L24 14L26 14L26 13L27 13L27 12L28 12L28 11L27 11L27 10L26 10L26 9L25 9L25 11L24 11L24 10L23 10L23 8L20 8L20 9L21 9L21 11L20 11L20 10L18 10L18 9L19 9L19 7L20 7L20 6L21 6L21 7L22 7L22 6L21 6L21 5L23 5L23 7L24 7L24 5L23 5L23 4L24 4L24 3L23 3L23 4L22 4L22 3L21 3L21 2L20 2L20 1ZM19 2L19 5L21 5L21 4L20 4L20 2ZM15 3L15 4L16 4L16 3ZM17 3L17 4L18 4L18 3ZM9 6L9 7L10 7L10 6ZM18 6L18 7L19 7L19 6ZM10 8L10 9L11 9L11 8ZM17 8L17 9L18 9L18 8ZM2 9L2 10L4 10L4 9ZM22 10L22 11L21 11L21 12L22 12L22 13L23 13L23 14L24 14L24 13L26 13L26 12L27 12L27 11L25 11L25 12L24 12L24 13L23 13L23 10ZM30 10L30 11L29 11L29 12L30 12L30 11L31 11L31 10ZM4 14L4 15L5 15L5 14ZM14 14L14 15L12 15L12 17L14 17L14 18L16 18L16 17L17 17L17 16L18 16L18 15L16 15L16 16L15 16L15 14ZM22 16L22 17L23 17L23 18L24 18L24 17L23 17L23 16ZM26 17L26 18L25 18L25 19L26 19L26 18L27 18L27 19L28 19L28 18L27 18L27 17ZM8 18L8 19L6 19L6 20L8 20L8 19L9 19L9 18ZM24 20L24 21L26 21L26 22L27 22L27 21L29 21L29 20L27 20L27 21L26 21L26 20ZM2 23L2 25L4 25L4 24L3 24L3 23ZM8 24L8 25L9 25L9 24ZM17 24L17 25L16 25L16 26L18 26L18 27L19 27L19 26L20 26L20 27L21 27L21 28L22 28L22 29L23 29L23 28L22 28L22 27L21 27L21 25L18 25L18 24ZM25 25L25 28L28 28L28 25ZM29 25L29 26L30 26L30 25ZM26 26L26 27L27 27L27 26ZM14 27L14 28L15 28L15 27ZM30 28L30 29L31 29L31 28ZM26 29L26 30L27 30L27 29ZM18 30L18 31L17 31L17 32L18 32L18 31L20 31L20 30ZM10 31L10 32L11 32L11 31ZM15 31L15 32L16 32L16 31ZM28 31L28 32L27 32L27 33L28 33L28 32L31 32L31 33L32 33L32 32L31 32L31 31ZM0 0L0 7L7 7L7 0ZM1 1L1 6L6 6L6 1ZM2 2L2 5L5 5L5 2ZM26 0L26 7L33 7L33 0ZM27 1L27 6L32 6L32 1ZM28 2L28 5L31 5L31 2ZM0 26L0 33L7 33L7 26ZM1 27L1 32L6 32L6 27ZM2 28L2 31L5 31L5 28Z" fill="#000000"/></g></g></svg>
