<?xml version="1.0" encoding="UTF-8"?>
<svg xmlns="http://www.w3.org/2000/svg" version="1.1" width="200" height="200" viewBox="0 0 200 200"><rect x="0" y="0" width="200" height="200" fill="#ffffff"/><g transform="scale(3.774)"><g transform="translate(10,10)"><path fill-rule="evenodd" d="M9 0L9 1L8 1L8 2L9 2L9 3L8 3L8 4L10 4L10 7L11 7L11 4L12 4L12 5L14 5L14 4L16 4L16 5L15 5L15 6L14 6L14 8L13 8L13 6L12 6L12 9L13 9L13 10L11 10L11 11L10 11L10 9L11 9L11 8L6 8L6 9L5 9L5 8L0 8L0 13L1 13L1 14L0 14L0 16L1 16L1 17L3 17L3 16L4 16L4 17L7 17L7 18L5 18L5 19L7 19L7 18L8 18L8 17L9 17L9 18L10 18L10 17L11 17L11 16L10 16L10 15L11 15L11 13L12 13L12 14L13 14L13 13L16 13L16 14L15 14L15 15L14 15L14 16L13 16L13 15L12 15L12 17L15 17L15 15L16 15L16 16L17 16L17 17L16 17L16 18L11 18L11 21L12 21L12 22L13 22L13 21L15 21L15 20L16 20L16 19L19 19L19 20L17 20L17 21L16 21L16 22L14 22L14 24L13 24L13 23L12 23L12 25L13 25L13 26L11 26L11 22L8 22L8 23L7 23L7 22L6 22L6 23L7 23L7 24L6 24L6 25L8 25L8 27L10 27L10 28L11 28L11 29L10 29L10 31L11 31L11 32L13 32L13 33L14 33L14 32L13 32L13 31L11 31L11 29L12 29L12 30L13 30L13 29L14 29L14 31L16 31L16 30L15 30L15 29L14 29L14 28L15 28L15 27L16 27L16 28L17 28L17 29L18 29L18 30L21 30L21 29L20 29L20 28L24 28L24 29L25 29L25 30L24 30L24 31L23 31L23 30L22 30L22 31L20 31L20 32L22 32L22 33L28 33L28 32L29 32L29 33L30 33L30 32L31 32L31 33L32 33L32 32L31 32L31 31L32 31L32 30L31 30L31 31L30 31L30 29L29 29L29 28L31 28L31 29L32 29L32 28L31 28L31 27L32 27L32 26L33 26L33 24L32 24L32 26L31 26L31 25L30 25L30 26L29 26L29 24L31 24L31 23L32 23L32 22L33 22L33 21L32 21L32 20L31 20L31 19L32 19L32 18L33 18L33 17L32 17L32 16L31 16L31 15L32 15L32 14L33 14L33 13L31 13L31 15L30 15L30 16L31 16L31 19L30 19L30 17L29 17L29 16L28 16L28 15L26 15L26 16L24 16L24 17L23 17L23 16L22 16L22 15L23 15L23 14L24 14L24 15L25 15L25 14L28 14L28 13L30 13L30 12L31 12L31 11L32 11L32 10L33 10L33 9L32 9L32 8L31 8L31 9L30 9L30 8L29 8L29 9L30 9L30 10L29 10L29 11L30 11L30 12L28 12L28 11L27 11L27 10L28 10L28 8L27 8L27 9L26 9L26 8L25 8L25 5L24 5L24 4L23 4L23 3L25 3L25 2L23 2L23 1L24 1L24 0L23 0L23 1L22 1L22 0L21 0L21 1L22 1L22 2L20 2L20 3L22 3L22 4L23 4L23 5L22 5L22 7L21 7L21 4L18 4L18 3L17 3L17 2L18 2L18 1L20 1L20 0L17 0L17 1L14 1L14 0L13 0L13 1L11 1L11 2L10 2L10 0ZM12 2L12 4L13 4L13 3L14 3L14 2ZM10 3L10 4L11 4L11 3ZM16 3L16 4L17 4L17 3ZM8 5L8 7L9 7L9 5ZM16 5L16 6L15 6L15 7L16 7L16 6L17 6L17 8L15 8L15 9L14 9L14 10L13 10L13 11L12 11L12 13L13 13L13 12L14 12L14 10L16 10L16 9L17 9L17 8L18 8L18 9L22 9L22 8L21 8L21 7L20 7L20 5ZM23 5L23 8L24 8L24 5ZM18 6L18 8L19 8L19 6ZM1 9L1 10L3 10L3 11L4 11L4 15L6 15L6 16L7 16L7 17L8 17L8 16L7 16L7 15L6 15L6 14L7 14L7 13L8 13L8 15L10 15L10 13L11 13L11 12L10 12L10 13L9 13L9 12L8 12L8 11L9 11L9 9L6 9L6 10L8 10L8 11L4 11L4 9ZM24 9L24 10L23 10L23 11L22 11L22 10L21 10L21 11L22 11L22 12L20 12L20 13L21 13L21 14L18 14L18 15L17 15L17 14L16 14L16 15L17 15L17 16L18 16L18 17L19 17L19 16L20 16L20 17L22 17L22 18L19 18L19 19L25 19L25 18L26 18L26 21L27 21L27 22L25 22L25 20L23 20L23 21L22 21L22 20L20 20L20 21L21 21L21 23L22 23L22 22L23 22L23 25L22 25L22 24L21 24L21 26L23 26L23 25L24 25L24 24L28 24L28 22L29 22L29 21L30 21L30 23L31 23L31 20L30 20L30 19L29 19L29 21L27 21L27 20L28 20L28 19L27 19L27 18L29 18L29 17L27 17L27 16L26 16L26 17L24 17L24 18L23 18L23 17L22 17L22 16L20 16L20 15L22 15L22 14L23 14L23 13L24 13L24 14L25 14L25 13L24 13L24 12L25 12L25 11L26 11L26 13L28 13L28 12L27 12L27 11L26 11L26 10L25 10L25 9ZM17 10L17 12L16 12L16 11L15 11L15 12L16 12L16 13L17 13L17 12L18 12L18 13L19 13L19 11L20 11L20 10L19 10L19 11L18 11L18 10ZM30 10L30 11L31 11L31 10ZM23 11L23 12L24 12L24 11ZM1 12L1 13L2 13L2 14L3 14L3 13L2 13L2 12ZM6 12L6 13L5 13L5 14L6 14L6 13L7 13L7 12ZM2 15L2 16L3 16L3 15ZM18 15L18 16L19 16L19 15ZM26 17L26 18L27 18L27 17ZM0 18L0 20L1 20L1 21L0 21L0 25L1 25L1 21L2 21L2 19L1 19L1 18ZM3 18L3 19L4 19L4 18ZM8 19L8 20L9 20L9 21L10 21L10 19ZM12 19L12 21L13 21L13 20L14 20L14 19ZM4 20L4 21L3 21L3 23L4 23L4 24L2 24L2 25L4 25L4 24L5 24L5 23L4 23L4 22L5 22L5 21L7 21L7 20ZM23 21L23 22L24 22L24 23L25 23L25 22L24 22L24 21ZM18 22L18 23L15 23L15 24L14 24L14 26L16 26L16 25L15 25L15 24L18 24L18 25L17 25L17 26L18 26L18 27L17 27L17 28L18 28L18 29L19 29L19 27L20 27L20 26L19 26L19 25L20 25L20 24L19 24L19 23L20 23L20 22ZM9 23L9 24L10 24L10 23ZM9 25L9 26L10 26L10 25ZM25 25L25 28L28 28L28 25ZM26 26L26 27L27 27L27 26ZM30 26L30 27L31 27L31 26ZM12 27L12 28L14 28L14 27ZM8 28L8 33L9 33L9 28ZM26 29L26 30L25 30L25 31L24 31L24 32L25 32L25 31L26 31L26 30L27 30L27 31L29 31L29 30L27 30L27 29ZM15 32L15 33L16 33L16 32ZM17 32L17 33L18 33L18 32ZM0 0L0 7L7 7L7 0ZM1 1L1 6L6 6L6 1ZM2 2L2 5L5 5L5 2ZM26 0L26 7L33 7L33 0ZM27 1L27 6L32 6L32 1ZM28 2L28 5L31 5L31 2ZM0 26L0 33L7 33L7 26ZM1 27L1 32L6 32L6 27ZM2 28L2 31L5 31L5 28Z" fill="#000000"/></g></g></svg>
