<?xml version="1.0" encoding="UTF-8"?>
<svg xmlns="http://www.w3.org/2000/svg" version="1.1" width="150" height="150" viewBox="0 0 150 150"><rect x="0" y="0" width="150" height="150" fill="#ffffff"/><g transform="scale(5.172)"><g transform="translate(0,0)"><path fill-rule="evenodd" d="M9 0L9 1L11 1L11 2L9 2L9 3L8 3L8 5L9 5L9 6L8 6L8 7L9 7L9 9L10 9L10 10L8 10L8 11L7 11L7 10L6 10L6 9L8 9L8 8L5 8L5 9L2 9L2 8L0 8L0 13L2 13L2 14L1 14L1 15L0 15L0 21L1 21L1 19L3 19L3 20L4 20L4 21L5 21L5 20L6 20L6 21L7 21L7 20L8 20L8 24L9 24L9 25L10 25L10 26L11 26L11 27L10 27L10 28L9 28L9 27L8 27L8 29L12 29L12 27L13 27L13 26L11 26L11 25L14 25L14 23L15 23L15 27L16 27L16 28L17 28L17 29L18 29L18 28L19 28L19 27L21 27L21 29L22 29L22 28L23 28L23 29L24 29L24 27L25 27L25 28L26 28L26 29L27 29L27 27L28 27L28 28L29 28L29 27L28 27L28 26L29 26L29 25L28 25L28 23L27 23L27 22L26 22L26 21L29 21L29 20L26 20L26 21L25 21L25 19L24 19L24 20L23 20L23 18L28 18L28 19L29 19L29 17L27 17L27 14L29 14L29 12L28 12L28 13L26 13L26 17L21 17L21 16L22 16L22 15L24 15L24 16L25 16L25 13L24 13L24 11L25 11L25 9L26 9L26 10L28 10L28 9L26 9L26 8L24 8L24 9L23 9L23 10L20 10L20 9L19 9L19 8L20 8L20 7L21 7L21 1L20 1L20 2L18 2L18 3L17 3L17 1L19 1L19 0L17 0L17 1L16 1L16 3L15 3L15 2L14 2L14 3L13 3L13 4L12 4L12 2L13 2L13 1L15 1L15 0L13 0L13 1L12 1L12 0ZM9 3L9 5L10 5L10 3ZM14 3L14 4L13 4L13 5L12 5L12 4L11 4L11 7L10 7L10 6L9 6L9 7L10 7L10 8L11 8L11 10L10 10L10 11L8 11L8 12L7 12L7 11L6 11L6 10L4 10L4 11L5 11L5 12L4 12L4 14L3 14L3 15L4 15L4 16L1 16L1 17L2 17L2 18L3 18L3 17L5 17L5 18L4 18L4 19L5 19L5 18L7 18L7 19L6 19L6 20L7 20L7 19L9 19L9 24L12 24L12 23L13 23L13 22L12 22L12 21L17 21L17 22L18 22L18 21L20 21L20 20L21 20L21 18L20 18L20 16L18 16L18 14L19 14L19 15L22 15L22 12L23 12L23 11L24 11L24 10L23 10L23 11L21 11L21 12L19 12L19 11L20 11L20 10L18 10L18 11L17 11L17 8L19 8L19 7L20 7L20 5L18 5L18 4L19 4L19 3L18 3L18 4L17 4L17 5L16 5L16 4L15 4L15 3ZM14 5L14 7L15 7L15 5ZM12 6L12 9L13 9L13 10L11 10L11 11L10 11L10 12L8 12L8 14L6 14L6 13L7 13L7 12L6 12L6 13L5 13L5 14L4 14L4 15L5 15L5 16L6 16L6 17L7 17L7 18L8 18L8 17L7 17L7 16L8 16L8 14L9 14L9 15L10 15L10 16L9 16L9 18L11 18L11 17L10 17L10 16L11 16L11 15L10 15L10 14L11 14L11 12L12 12L12 11L14 11L14 14L13 14L13 13L12 13L12 14L13 14L13 15L12 15L12 17L14 17L14 18L12 18L12 19L11 19L11 20L10 20L10 21L12 21L12 19L15 19L15 20L17 20L17 21L18 21L18 20L17 20L17 19L18 19L18 18L17 18L17 17L18 17L18 16L15 16L15 15L17 15L17 13L16 13L16 12L15 12L15 11L16 11L16 9L14 9L14 8L13 8L13 6ZM16 6L16 8L17 8L17 6ZM18 6L18 7L19 7L19 6ZM1 9L1 11L2 11L2 13L3 13L3 10L2 10L2 9ZM20 13L20 14L21 14L21 13ZM14 14L14 15L13 15L13 16L14 16L14 17L15 17L15 16L14 16L14 15L15 15L15 14ZM6 15L6 16L7 16L7 15ZM28 15L28 16L29 16L29 15ZM16 18L16 19L17 19L17 18ZM19 18L19 19L20 19L20 18ZM21 21L21 24L24 24L24 21ZM19 22L19 23L20 23L20 22ZM22 22L22 23L23 23L23 22ZM16 23L16 24L17 24L17 25L19 25L19 24L18 24L18 23ZM26 23L26 25L27 25L27 26L25 26L25 25L22 25L22 26L21 26L21 27L22 27L22 26L25 26L25 27L27 27L27 26L28 26L28 25L27 25L27 23ZM17 26L17 28L18 28L18 27L19 27L19 26ZM0 0L0 7L7 7L7 0ZM1 1L1 6L6 6L6 1ZM2 2L2 5L5 5L5 2ZM22 0L22 7L29 7L29 0ZM23 1L23 6L28 6L28 1ZM24 2L24 5L27 5L27 2ZM0 22L0 29L7 29L7 22ZM1 23L1 28L6 28L6 23ZM2 24L2 27L5 27L5 24Z" fill="#000000"/></g></g></svg>
