<?xml version="1.0" encoding="UTF-8"?>
<svg xmlns="http://www.w3.org/2000/svg" version="1.1" width="150" height="150" viewBox="0 0 150 150"><rect x="0" y="0" width="150" height="150" fill="#ffffff"/><g transform="scale(5.172)"><g transform="translate(0,0)"><path fill-rule="evenodd" d="M8 0L8 1L10 1L10 0ZM16 0L16 2L15 2L15 1L14 1L14 2L11 2L11 4L10 4L10 3L9 3L9 2L8 2L8 5L9 5L9 6L8 6L8 7L9 7L9 8L8 8L8 9L9 9L9 10L8 10L8 11L7 11L7 10L6 10L6 9L7 9L7 8L6 8L6 9L4 9L4 8L0 8L0 10L1 10L1 9L2 9L2 10L4 10L4 11L3 11L3 12L2 12L2 11L1 11L1 12L0 12L0 17L1 17L1 18L0 18L0 19L1 19L1 18L2 18L2 19L3 19L3 20L1 20L1 21L3 21L3 20L4 20L4 21L5 21L5 20L6 20L6 21L7 21L7 20L6 20L6 19L7 19L7 18L6 18L6 19L4 19L4 18L3 18L3 17L2 17L2 16L3 16L3 15L4 15L4 16L5 16L5 17L7 17L7 16L8 16L8 17L9 17L9 18L8 18L8 20L9 20L9 21L8 21L8 22L10 22L10 23L9 23L9 25L8 25L8 29L9 29L9 28L10 28L10 27L11 27L11 28L12 28L12 29L13 29L13 28L12 28L12 26L13 26L13 27L14 27L14 29L16 29L16 27L14 27L14 26L17 26L17 25L18 25L18 24L17 24L17 22L16 22L16 23L15 23L15 24L14 24L14 26L13 26L13 24L12 24L12 25L10 25L10 24L11 24L11 23L14 23L14 20L13 20L13 17L14 17L14 18L15 18L15 21L18 21L18 22L20 22L20 25L19 25L19 26L18 26L18 29L19 29L19 26L20 26L20 29L21 29L21 27L22 27L22 25L23 25L23 28L24 28L24 29L25 29L25 28L26 28L26 25L28 25L28 27L27 27L27 29L28 29L28 27L29 27L29 23L28 23L28 22L29 22L29 21L27 21L27 18L28 18L28 15L29 15L29 13L27 13L27 12L26 12L26 11L28 11L28 12L29 12L29 11L28 11L28 10L29 10L29 8L28 8L28 10L26 10L26 11L24 11L24 10L25 10L25 9L27 9L27 8L24 8L24 9L22 9L22 8L21 8L21 5L20 5L20 3L21 3L21 2L20 2L20 3L19 3L19 5L18 5L18 3L17 3L17 4L15 4L15 3L16 3L16 2L19 2L19 1L21 1L21 0L18 0L18 1L17 1L17 0ZM12 3L12 5L10 5L10 6L9 6L9 7L10 7L10 8L9 8L9 9L10 9L10 10L9 10L9 12L10 12L10 13L8 13L8 12L7 12L7 11L6 11L6 10L5 10L5 11L4 11L4 12L7 12L7 13L6 13L6 14L5 14L5 13L3 13L3 14L1 14L1 16L2 16L2 15L3 15L3 14L5 14L5 16L7 16L7 15L8 15L8 16L10 16L10 13L11 13L11 11L13 11L13 9L14 9L14 11L15 11L15 12L14 12L14 13L13 13L13 12L12 12L12 14L11 14L11 16L12 16L12 17L10 17L10 18L12 18L12 17L13 17L13 16L14 16L14 15L17 15L17 17L16 17L16 16L15 16L15 17L16 17L16 18L17 18L17 19L19 19L19 20L20 20L20 18L18 18L18 15L19 15L19 14L20 14L20 16L19 16L19 17L21 17L21 16L22 16L22 19L23 19L23 16L24 16L24 15L25 15L25 17L24 17L24 20L26 20L26 19L25 19L25 18L26 18L26 17L27 17L27 15L25 15L25 14L27 14L27 13L25 13L25 12L22 12L22 10L19 10L19 12L18 12L18 10L16 10L16 9L15 9L15 8L16 8L16 5L15 5L15 8L14 8L14 6L13 6L13 7L12 7L12 5L14 5L14 4L13 4L13 3ZM17 5L17 7L18 7L18 5ZM10 6L10 7L11 7L11 8L12 8L12 7L11 7L11 6ZM19 6L19 7L20 7L20 6ZM18 8L18 9L19 9L19 8ZM20 8L20 9L21 9L21 8ZM16 11L16 12L15 12L15 14L19 14L19 13L21 13L21 11L20 11L20 12L19 12L19 13L18 13L18 12L17 12L17 11ZM22 13L22 14L21 14L21 15L22 15L22 16L23 16L23 15L24 15L24 14L23 14L23 13ZM6 14L6 15L7 15L7 14ZM8 14L8 15L9 15L9 14ZM12 14L12 16L13 16L13 15L14 15L14 14ZM22 14L22 15L23 15L23 14ZM9 19L9 20L10 20L10 22L12 22L12 21L11 21L11 20L12 20L12 19L11 19L11 20L10 20L10 19ZM21 21L21 24L24 24L24 21ZM22 22L22 23L23 23L23 22ZM26 22L26 23L25 23L25 25L26 25L26 24L27 24L27 22ZM16 24L16 25L17 25L17 24ZM20 25L20 26L21 26L21 25ZM24 26L24 28L25 28L25 26ZM0 0L0 7L7 7L7 0ZM1 1L1 6L6 6L6 1ZM2 2L2 5L5 5L5 2ZM22 0L22 7L29 7L29 0ZM23 1L23 6L28 6L28 1ZM24 2L24 5L27 5L27 2ZM0 22L0 29L7 29L7 22ZM1 23L1 28L6 28L6 23ZM2 24L2 27L5 27L5 24Z" fill="#000000"/></g></g></svg>
