<?xml version="1.0" encoding="UTF-8"?>
<svg xmlns="http://www.w3.org/2000/svg" version="1.1" width="200" height="200" viewBox="0 0 200 200"><rect x="0" y="0" width="200" height="200" fill="#ffffff"/><g transform="scale(3.774)"><g transform="translate(10,10)"><path fill-rule="evenodd" d="M10 0L10 2L11 2L11 0ZM12 0L12 1L13 1L13 0ZM16 0L16 1L14 1L14 3L13 3L13 2L12 2L12 4L13 4L13 5L11 5L11 6L10 6L10 4L11 4L11 3L8 3L8 4L9 4L9 5L8 5L8 7L9 7L9 8L6 8L6 9L5 9L5 8L0 8L0 10L1 10L1 11L2 11L2 12L0 12L0 13L1 13L1 14L0 14L0 16L1 16L1 14L3 14L3 15L2 15L2 16L3 16L3 18L4 18L4 19L2 19L2 17L1 17L1 18L0 18L0 25L1 25L1 22L2 22L2 23L3 23L3 24L2 24L2 25L3 25L3 24L5 24L5 25L8 25L8 27L10 27L10 28L8 28L8 33L12 33L12 31L13 31L13 30L11 30L11 27L10 27L10 26L9 26L9 25L10 25L10 24L9 24L9 25L8 25L8 22L9 22L9 21L7 21L7 20L8 20L8 18L9 18L9 19L10 19L10 23L11 23L11 25L12 25L12 26L13 26L13 27L12 27L12 29L13 29L13 28L14 28L14 29L15 29L15 28L17 28L17 29L16 29L16 30L15 30L15 31L14 31L14 32L15 32L15 33L16 33L16 32L17 32L17 33L18 33L18 32L19 32L19 33L20 33L20 32L22 32L22 33L25 33L25 32L26 32L26 31L27 31L27 30L29 30L29 29L30 29L30 30L33 30L33 27L32 27L32 26L33 26L33 24L32 24L32 26L31 26L31 25L30 25L30 24L31 24L31 23L32 23L32 22L33 22L33 21L32 21L32 20L31 20L31 19L32 19L32 18L33 18L33 17L32 17L32 16L31 16L31 15L32 15L32 14L33 14L33 13L31 13L31 15L30 15L30 16L31 16L31 19L30 19L30 17L29 17L29 16L27 16L27 14L28 14L28 13L30 13L30 12L31 12L31 11L32 11L32 10L33 10L33 9L32 9L32 8L31 8L31 9L30 9L30 8L29 8L29 9L30 9L30 10L27 10L27 9L28 9L28 8L27 8L27 9L26 9L26 8L24 8L24 7L25 7L25 5L24 5L24 4L25 4L25 2L23 2L23 1L24 1L24 0L23 0L23 1L22 1L22 2L21 2L21 1L20 1L20 0ZM8 1L8 2L9 2L9 1ZM18 1L18 2L17 2L17 3L16 3L16 2L15 2L15 3L14 3L14 5L16 5L16 4L17 4L17 5L18 5L18 6L17 6L17 7L16 7L16 6L15 6L15 7L16 7L16 9L15 9L15 8L14 8L14 6L13 6L13 7L12 7L12 6L11 6L11 7L12 7L12 9L11 9L11 8L10 8L10 9L9 9L9 12L8 12L8 13L9 13L9 14L8 14L8 15L9 15L9 14L14 14L14 13L15 13L15 14L16 14L16 13L17 13L17 14L18 14L18 13L19 13L19 12L20 12L20 13L22 13L22 14L23 14L23 15L22 15L22 16L20 16L20 15L21 15L21 14L19 14L19 16L20 16L20 17L21 17L21 19L22 19L22 18L23 18L23 21L24 21L24 22L23 22L23 25L22 25L22 24L20 24L20 23L22 23L22 22L21 22L21 21L22 21L22 20L20 20L20 22L19 22L19 19L20 19L20 18L18 18L18 19L17 19L17 20L16 20L16 19L14 19L14 20L13 20L13 21L12 21L12 19L13 19L13 18L12 18L12 17L14 17L14 18L16 18L16 17L17 17L17 16L18 16L18 15L16 15L16 16L15 16L15 15L12 15L12 17L11 17L11 22L13 22L13 23L12 23L12 25L15 25L15 26L16 26L16 27L17 27L17 28L18 28L18 29L21 29L21 30L23 30L23 31L22 31L22 32L23 32L23 31L24 31L24 32L25 32L25 31L24 31L24 30L25 30L25 29L24 29L24 28L23 28L23 27L22 27L22 26L24 26L24 24L25 24L25 22L26 22L26 24L28 24L28 22L29 22L29 21L30 21L30 23L31 23L31 20L30 20L30 19L29 19L29 17L27 17L27 16L26 16L26 17L24 17L24 16L23 16L23 15L24 15L24 14L26 14L26 13L27 13L27 12L28 12L28 11L27 11L27 10L26 10L26 9L25 9L25 11L24 11L24 10L23 10L23 8L20 8L20 9L21 9L21 11L20 11L20 10L18 10L18 9L19 9L19 7L20 7L20 6L21 6L21 7L22 7L22 6L21 6L21 5L23 5L23 7L24 7L24 5L23 5L23 4L24 4L24 3L23 3L23 4L22 4L22 3L21 3L21 2L20 2L20 1ZM19 2L19 5L21 5L21 4L20 4L20 2ZM15 3L15 4L16 4L16 3ZM17 3L17 4L18 4L18 3ZM9 6L9 7L10 7L10 6ZM18 6L18 7L19 7L19 6ZM13 8L13 9L12 9L12 10L13 10L13 11L12 11L12 13L14 13L14 12L17 12L17 13L18 13L18 12L17 12L17 9L18 9L18 8L17 8L17 9L16 9L16 10L15 10L15 9L14 9L14 8ZM2 9L2 11L4 11L4 12L2 12L2 13L3 13L3 14L4 14L4 16L7 16L7 15L6 15L6 14L7 14L7 13L6 13L6 12L7 12L7 11L8 11L8 9L6 9L6 10L7 10L7 11L6 11L6 12L5 12L5 11L4 11L4 10L5 10L5 9ZM10 9L10 11L11 11L11 9ZM13 9L13 10L14 10L14 11L13 11L13 12L14 12L14 11L15 11L15 10L14 10L14 9ZM22 10L22 11L21 11L21 12L22 12L22 13L23 13L23 14L24 14L24 13L26 13L26 12L27 12L27 11L25 11L25 12L24 12L24 13L23 13L23 10ZM30 10L30 11L29 11L29 12L30 12L30 11L31 11L31 10ZM9 12L9 13L11 13L11 12ZM4 13L4 14L5 14L5 13ZM10 15L10 16L11 16L11 15ZM22 16L22 17L23 17L23 18L24 18L24 17L23 17L23 16ZM4 17L4 18L8 18L8 17ZM9 17L9 18L10 18L10 17ZM26 17L26 18L25 18L25 19L26 19L26 18L27 18L27 19L28 19L28 18L27 18L27 17ZM4 19L4 21L2 21L2 20L1 20L1 21L2 21L2 22L5 22L5 21L6 21L6 22L7 22L7 21L6 21L6 20L7 20L7 19ZM14 20L14 21L15 21L15 20ZM17 20L17 21L18 21L18 20ZM24 20L24 21L26 21L26 22L27 22L27 21L29 21L29 20L27 20L27 21L26 21L26 20ZM15 22L15 23L14 23L14 24L15 24L15 25L16 25L16 26L18 26L18 27L19 27L19 26L20 26L20 27L21 27L21 28L22 28L22 29L23 29L23 28L22 28L22 27L21 27L21 25L18 25L18 24L17 24L17 23L19 23L19 22ZM5 23L5 24L7 24L7 23ZM16 24L16 25L17 25L17 24ZM25 25L25 28L28 28L28 25ZM29 25L29 26L30 26L30 25ZM26 26L26 27L27 27L27 26ZM14 27L14 28L15 28L15 27ZM30 28L30 29L31 29L31 28ZM26 29L26 30L27 30L27 29ZM18 30L18 31L17 31L17 32L18 32L18 31L20 31L20 30ZM9 31L9 32L11 32L11 31ZM15 31L15 32L16 32L16 31ZM28 31L28 32L27 32L27 33L28 33L28 32L31 32L31 33L32 33L32 32L31 32L31 31ZM0 0L0 7L7 7L7 0ZM1 1L1 6L6 6L6 1ZM2 2L2 5L5 5L5 2ZM26 0L26 7L33 7L33 0ZM27 1L27 6L32 6L32 1ZM28 2L28 5L31 5L31 2ZM0 26L0 33L7 33L7 26ZM1 27L1 32L6 32L6 27ZM2 28L2 31L5 31L5 28Z" fill="#000000"/></g></g></svg>
