<?xml version="1.0" encoding="UTF-8"?>
<svg xmlns="http://www.w3.org/2000/svg" version="1.1" width="150" height="150" viewBox="0 0 150 150"><rect x="0" y="0" width="150" height="150" fill="#ffffff"/><g transform="scale(3.061)"><g transform="translate(10,10)"><path fill-rule="evenodd" d="M8 0L8 1L9 1L9 2L8 2L8 5L9 5L9 4L11 4L11 5L10 5L10 10L9 10L9 8L8 8L8 9L7 9L7 8L6 8L6 9L7 9L7 10L5 10L5 9L4 9L4 8L0 8L0 10L1 10L1 11L0 11L0 12L1 12L1 11L2 11L2 12L4 12L4 13L1 13L1 14L2 14L2 15L1 15L1 16L0 16L0 17L1 17L1 18L0 18L0 19L1 19L1 18L2 18L2 20L1 20L1 21L3 21L3 19L4 19L4 21L5 21L5 20L6 20L6 21L8 21L8 22L9 22L9 25L8 25L8 29L12 29L12 28L14 28L14 27L15 27L15 26L16 26L16 27L17 27L17 26L18 26L18 24L17 24L17 23L20 23L20 25L21 25L21 26L22 26L22 25L24 25L24 26L23 26L23 28L24 28L24 26L26 26L26 27L25 27L25 29L26 29L26 27L27 27L27 29L28 29L28 27L29 27L29 25L28 25L28 24L26 24L26 22L27 22L27 23L28 23L28 22L29 22L29 21L27 21L27 18L28 18L28 15L29 15L29 13L27 13L27 12L25 12L25 9L27 9L27 8L24 8L24 9L22 9L22 8L21 8L21 11L22 11L22 10L23 10L23 12L25 12L25 13L26 13L26 15L27 15L27 17L26 17L26 16L25 16L25 14L24 14L24 13L22 13L22 15L23 15L23 16L24 16L24 17L23 17L23 19L22 19L22 18L21 18L21 17L22 17L22 16L21 16L21 14L20 14L20 12L19 12L19 10L20 10L20 9L18 9L18 8L20 8L20 7L21 7L21 6L20 6L20 4L19 4L19 5L18 5L18 7L17 7L17 4L18 4L18 3L19 3L19 1L21 1L21 0L17 0L17 1L16 1L16 0L12 0L12 1L11 1L11 0L10 0L10 1L9 1L9 0ZM14 1L14 2L11 2L11 4L12 4L12 3L13 3L13 5L12 5L12 6L11 6L11 8L12 8L12 6L13 6L13 8L14 8L14 9L15 9L15 7L16 7L16 6L15 6L15 5L16 5L16 4L17 4L17 3L18 3L18 1L17 1L17 3L16 3L16 1ZM14 3L14 5L13 5L13 6L14 6L14 7L15 7L15 6L14 6L14 5L15 5L15 4L16 4L16 3ZM8 6L8 7L9 7L9 6ZM19 6L19 7L20 7L20 6ZM28 8L28 10L26 10L26 11L28 11L28 12L29 12L29 11L28 11L28 10L29 10L29 8ZM1 9L1 10L3 10L3 11L4 11L4 12L5 12L5 10L4 10L4 9ZM11 9L11 10L12 10L12 9ZM16 9L16 10L14 10L14 11L11 11L11 13L9 13L9 11L8 11L8 10L7 10L7 11L6 11L6 12L7 12L7 11L8 11L8 13L4 13L4 14L3 14L3 15L4 15L4 17L5 17L5 15L4 15L4 14L8 14L8 16L7 16L7 15L6 15L6 16L7 16L7 17L6 17L6 18L5 18L5 19L6 19L6 20L8 20L8 21L9 21L9 22L11 22L11 23L10 23L10 24L11 24L11 23L14 23L14 22L15 22L15 24L12 24L12 26L10 26L10 25L9 25L9 28L12 28L12 26L13 26L13 27L14 27L14 26L15 26L15 24L16 24L16 25L17 25L17 24L16 24L16 22L20 22L20 20L21 20L21 19L20 19L20 17L19 17L19 18L18 18L18 16L19 16L19 15L18 15L18 14L17 14L17 15L16 15L16 13L19 13L19 12L18 12L18 10L17 10L17 9ZM16 10L16 11L15 11L15 12L14 12L14 14L13 14L13 12L12 12L12 13L11 13L11 16L10 16L10 14L9 14L9 16L10 16L10 19L11 19L11 20L12 20L12 19L11 19L11 16L12 16L12 17L13 17L13 16L12 16L12 14L13 14L13 15L14 15L14 18L13 18L13 21L15 21L15 19L17 19L17 21L19 21L19 20L20 20L20 19L19 19L19 20L18 20L18 19L17 19L17 16L16 16L16 15L14 15L14 14L15 14L15 12L17 12L17 10ZM1 16L1 17L2 17L2 18L3 18L3 16ZM15 16L15 17L16 17L16 16ZM24 17L24 19L23 19L23 20L26 20L26 18L25 18L25 17ZM6 18L6 19L7 19L7 18ZM8 18L8 20L9 20L9 21L10 21L10 20L9 20L9 18ZM21 21L21 24L24 24L24 21ZM22 22L22 23L23 23L23 22ZM25 24L25 25L26 25L26 26L27 26L27 27L28 27L28 25L26 25L26 24ZM13 25L13 26L14 26L14 25ZM19 26L19 27L20 27L20 28L18 28L18 29L22 29L22 28L21 28L21 27L20 27L20 26ZM16 28L16 29L17 29L17 28ZM0 0L0 7L7 7L7 0ZM1 1L1 6L6 6L6 1ZM2 2L2 5L5 5L5 2ZM22 0L22 7L29 7L29 0ZM23 1L23 6L28 6L28 1ZM24 2L24 5L27 5L27 2ZM0 22L0 29L7 29L7 22ZM1 23L1 28L6 28L6 23ZM2 24L2 27L5 27L5 24Z" fill="#000000"/></g></g></svg>
